<?xml version="1.0" encoding="UTF-8"?>
<svg width="92px" height="92px" viewBox="0 0 92 92" version="1.1" xmlns="http://www.w3.org/2000/svg" xmlns:xlink="http://www.w3.org/1999/xlink">
    <title>Group 10</title>
    <g id="ESRA" stroke="none" stroke-width="1" fill="none" fill-rule="evenodd">
        <g transform="translate(-74.000000, -780.000000)" id="Group">
            <g transform="translate(20.000000, 780.000000)">
                <g id="VO">
                    <g id="Group-10" transform="translate(54.000000, 0.000000)">
                        <circle id="Oval" fill="#4299B7" cx="46" cy="46" r="46"></circle>
                        <path d="M32.627803,22.538849 C34.587045,21.4198 36.68116,20.549788 38.866455,19.952631 L39.711236,15.447134 C39.977283,14.028216 41.216207,13 42.659853,13 L49.340147,13 C50.783793,13 52.022717,14.028216 52.288764,15.447134 L53.133545,19.952631 C55.31884,20.549788 57.412955,21.4198 59.372197,22.538849 L63.157311,19.949034 C64.348762,19.133831 65.951872,19.282824 66.972683,20.303635 L71.696365,25.027317 C72.717176,26.048128 72.866169,27.651238 72.050966,28.842689 L69.461151,32.627803 C70.5802,34.587045 71.450212,36.68116 72.047369,38.866455 L76.552866,39.711236 C77.971784,39.977283 79,41.216207 79,42.659853 L79,49.340147 C79,50.783793 77.971784,52.022717 76.552866,52.288764 L72.047369,53.133545 C71.450212,55.31884 70.5802,57.412955 69.461151,59.372197 L72.050966,63.157311 C72.866169,64.348762 72.717176,65.951872 71.696365,66.972683 L66.972683,71.696365 C65.951872,72.717176 64.348762,72.866169 63.157311,72.050966 L59.372197,69.461151 C57.412955,70.5802 55.31884,71.450212 53.133545,72.047369 L52.288764,76.552866 C52.022717,77.971784 50.783793,79 49.340147,79 L42.659853,79 C41.216207,79 39.977283,77.971784 39.711236,76.552866 L38.866455,72.047369 C36.68116,71.450212 34.587045,70.5802 32.627803,69.461151 L28.842689,72.050966 C27.651238,72.866169 26.048128,72.717176 25.027317,71.696365 L20.303635,66.972683 C19.282824,65.951872 19.133831,64.348762 19.949034,63.157311 L22.538849,59.372197 C21.4198,57.412955 20.549788,55.31884 19.952631,53.133545 L15.447134,52.288764 C14.028216,52.022717 13,50.783793 13,49.340147 L13,42.659853 C13,41.216207 14.028216,39.977283 15.447134,39.711236 L19.952631,38.866455 C20.549788,36.68116 21.4198,34.587045 22.538849,32.627803 L19.949034,28.842689 C19.133831,27.651238 19.282824,26.048128 20.303635,25.027317 L25.027317,20.303635 C26.048128,19.282824 27.651238,19.133831 28.842689,19.949034 L32.627803,22.538849 Z M33.103442,24.578683 C32.76806,24.781049 32.345407,24.76897 32.02213,24.547781 L27.713321,21.599648 C27.316171,21.327914 26.781801,21.377578 26.441531,21.717849 L21.717849,26.441531 C21.377578,26.781801 21.327914,27.316171 21.599648,27.713321 L24.547781,32.02213 C24.76897,32.345407 24.781049,32.76806 24.578683,33.103442 C23.29317,35.23393 22.331693,37.54628 21.731153,39.972671 C21.637056,40.352855 21.329679,40.643112 20.944732,40.715289 L15.815711,41.67698 C15.342739,41.765663 15,42.178638 15,42.659853 L15,49.340147 C15,49.821362 15.342739,50.234337 15.815711,50.32302 L20.944732,51.284711 C21.329679,51.356888 21.637056,51.647145 21.731153,52.027329 C22.331693,54.45372 23.29317,56.76607 24.578683,58.896558 C24.781049,59.23194 24.76897,59.654593 24.547781,59.97787 L21.599648,64.286679 C21.327914,64.683829 21.377578,65.218199 21.717849,65.558469 L26.441531,70.282151 C26.781801,70.622422 27.316171,70.672086 27.713321,70.400352 L32.02213,67.452219 C32.345407,67.23103 32.76806,67.218951 33.103442,67.421317 C35.23393,68.70683 37.54628,69.668307 39.972671,70.268847 C40.352855,70.362944 40.643112,70.670321 40.715289,71.055268 L41.67698,76.184289 C41.765663,76.657261 42.178638,77 42.659853,77 L49.340147,77 C49.821362,77 50.234337,76.657261 50.32302,76.184289 L51.284711,71.055268 C51.356888,70.670321 51.647145,70.362944 52.027329,70.268847 C54.45372,69.668307 56.76607,68.70683 58.896558,67.421317 C59.23194,67.218951 59.654593,67.23103 59.97787,67.452219 L64.286679,70.400352 C64.683829,70.672086 65.218199,70.622422 65.558469,70.282151 L70.282151,65.558469 C70.622422,65.218199 70.672086,64.683829 70.400352,64.286679 L67.452219,59.97787 C67.23103,59.654593 67.218951,59.23194 67.421317,58.896558 C68.70683,56.76607 69.668307,54.45372 70.268847,52.027329 C70.362944,51.647145 70.670321,51.356888 71.055268,51.284711 L76.184289,50.32302 C76.657261,50.234337 77,49.821362 77,49.340147 L77,42.659853 C77,42.178638 76.657261,41.765663 76.184289,41.67698 L71.055268,40.715289 C70.670321,40.643112 70.362944,40.352855 70.268847,39.972671 C69.668307,37.54628 68.70683,35.23393 67.421317,33.103442 C67.218951,32.76806 67.23103,32.345407 67.452219,32.02213 L70.400352,27.713321 C70.672086,27.316171 70.622422,26.781801 70.282151,26.441531 L65.558469,21.717849 C65.218199,21.377578 64.683829,21.327914 64.286679,21.599648 L59.97787,24.547781 C59.654593,24.76897 59.23194,24.781049 58.896558,24.578683 C56.76607,23.29317 54.45372,22.331693 52.027329,21.731153 C51.647145,21.637056 51.356888,21.329679 51.284711,20.944732 L50.32302,15.815711 C50.234337,15.342739 49.821362,15 49.340147,15 L42.659853,15 C42.178638,15 41.765663,15.342739 41.67698,15.815711 L40.715289,20.944732 C40.643112,21.329679 40.352855,21.637056 39.972671,21.731153 C37.54628,22.331693 35.23393,23.29317 33.103442,24.578683 Z M46,59 C38.820298,59 33,53.179702 33,46 C33,38.820298 38.820298,33 46,33 C53.179702,33 59,38.820298 59,46 C59,53.179702 53.179702,59 46,59 Z M46,57 C52.075132,57 57,52.075132 57,46 C57,39.924868 52.075132,35 46,35 C39.924868,35 35,39.924868 35,46 C35,52.075132 39.924868,57 46,57 Z" id="Shape" fill="#FFFFFF" fill-rule="nonzero"></path>
                    </g>
                </g>
            </g>
        </g>
    </g>
</svg>