<?xml version="1.0" encoding="UTF-8"?>
<svg width="92px" height="92px" viewBox="0 0 92 92" version="1.1" xmlns="http://www.w3.org/2000/svg" xmlns:xlink="http://www.w3.org/1999/xlink">
    <title>Group 13</title>
    <g id="ESRA" stroke="none" stroke-width="1" fill="none" fill-rule="evenodd">
        <g transform="translate(-538.000000, -780.000000)" id="Group">
            <g transform="translate(20.000000, 780.000000)">
                <g id="RPO" transform="translate(464.000000, 0.000000)">
                    <g id="Group-13" transform="translate(54.000000, 0.000000)">
                        <circle id="Oval" fill="#4299B7" cx="46" cy="46" r="46"></circle>
                        <path d="M69.0165694,63.9261094 L59.2281694,54.1365694 C65.2828224,45.4442942 63.6969282,33.5672393 55.5737664,26.7680694 C47.4506045,19.9688994 35.4798661,20.4989134 27.9893897,27.9893897 C20.4989134,35.4798661 19.9688994,47.4506045 26.7680694,55.5737664 C33.5672393,63.6969282 45.4442942,65.2828224 54.1365694,59.2281694 L63.9249694,69.0165694 C64.8320212,69.9373225 66.1630553,70.3011642 67.412361,69.969857 C68.6616667,69.6385498 69.6374892,68.6629458 69.9690761,67.4137144 C70.300663,66.1644829 69.9371194,64.8333673 69.0165694,63.9261094 Z M24.497683,42.4975294 C24.4832069,33.9854497 30.4332708,26.6268598 38.7598089,24.8592414 C47.086347,23.091623 55.5127911,27.3982627 58.957707,35.1821092 C62.4026228,42.9659557 59.924132,52.0988188 53.0168494,57.0732694 C52.3173552,53.7565767 50.0980029,50.9623382 47.0257294,49.5302494 C50.161776,47.5149556 51.5944953,43.6739265 50.5443127,40.0971523 C49.49413,36.5203781 46.2122998,34.0635958 42.4845394,34.0635958 C38.7567791,34.0635958 35.4749488,36.5203781 34.4247662,40.0971523 C33.3745835,43.6739265 34.8073028,47.5149556 37.9433494,49.5302494 C34.8792021,50.9580431 32.6626443,53.7409748 31.9564894,57.0468694 C27.272581,53.680983 24.4962534,48.2653876 24.497683,42.4975294 Z M36.4845694,42.4845694 C36.4845694,39.1708609 39.1708609,36.4845694 42.4845694,36.4845694 C45.7982779,36.4845694 48.4845694,39.1708609 48.4845694,42.4845694 C48.4845694,45.7982779 45.7982779,48.4845694 42.4845694,48.4845694 C39.1724646,48.480701 36.4884378,45.7966743 36.4845694,42.4845694 Z M34.1571094,58.4034694 C34.5955061,54.1247378 38.2046864,50.8742807 42.505806,50.8845411 C46.8069256,50.8948501 50.4005199,54.1625302 50.8184494,58.4433094 C45.6022426,61.1960132 39.3600923,61.1810872 34.1571094,58.4034694 L34.1571094,58.4034694 Z M67.3198294,67.3198294 C66.8455902,67.774524 66.0972087,67.774524 65.6229694,67.3198294 L56.0262094,57.7242094 C56.6247476,57.1917107 57.1917107,56.6247476 57.7242094,56.0262094 L67.3198294,65.6241694 C67.5462393,65.8477879 67.6729844,66.153209 67.6714436,66.4714294 C67.6717914,66.7897487 67.5452531,67.0950819 67.3198294,67.3198294 Z" id="Shape" fill="#FFFFFF" fill-rule="nonzero"></path>
                    </g>
                </g>
            </g>
        </g>
    </g>
</svg>