<?xml version="1.0" encoding="UTF-8"?>
<svg width="92px" height="92px" viewBox="0 0 92 92" version="1.1" xmlns="http://www.w3.org/2000/svg" xmlns:xlink="http://www.w3.org/1999/xlink">
    <title>Group 15</title>
    <g id="ESRA" stroke="none" stroke-width="1" fill="none" fill-rule="evenodd">
        <g transform="translate(-1003.000000, -780.000000)" id="Group">
            <g transform="translate(20.000000, 780.000000)">
                <g id="Training" transform="translate(929.000000, 0.000000)">
                    <g id="Group-15" transform="translate(54.000000, 0.000000)">
                        <circle id="Oval-Copy" fill="#4299B7" cx="46" cy="46" r="46"></circle>
                        <g id="Group" transform="translate(15.000000, 19.000000)" fill="#FFFFFF" fill-rule="nonzero">
                            <path d="M12.8,16.08 L3.84,12 C3.44,11.84 2.96,12 2.8,12.4 C2.64,12.8 2.8,13.28 3.2,13.44 L11.76,17.36 L11.76,32.64 L3.2,36.24 C2.8,36.4 2.56,36.88 2.8,37.28 C2.96,37.6 3.2,37.76 3.52,37.76 C3.6,37.76 3.76,37.76 3.84,37.68 L12.8,33.92 C13.12,33.76 13.28,33.52 13.28,33.2 L13.28,16.8 C13.28,16.48 13.12,16.24 12.8,16.08 Z" id="Path"></path>
                            <path d="M5.2,33.04 L5.2,16.8 C5.2,16.64 5.04,16.48 4.88,16.48 C4.72,16.48 4.56,16.64 4.56,16.8 L4.56,33.04 C4.56,33.2 4.72,33.36 4.88,33.36 C5.04,33.36 5.2,33.2 5.2,33.04 Z" id="Path"></path>
                            <path d="M8.32,30.08 L8.32,19.76 C8.32,19.6 8.16,19.44 8,19.44 C7.84,19.44 7.68,19.6 7.68,19.76 L7.68,30.08 C7.68,30.24 7.84,30.4 8,30.4 C8.16,30.4 8.32,30.24 8.32,30.08 Z" id="Path"></path>
                            <path d="M58.24,12.32 C58.08,11.92 57.6,11.76 57.2,11.92 L48.16,16.08 C47.84,16.24 47.68,16.48 47.68,16.8 L47.68,33.12 C47.68,33.44 47.84,33.76 48.16,33.84 L57.2,37.6 C57.28,37.68 57.44,37.68 57.52,37.68 C57.84,37.68 58.16,37.52 58.24,37.2 C58.4,36.8 58.24,36.32 57.84,36.16 L49.28,32.56 L49.28,17.36 L57.84,13.44 C58.24,13.2 58.4,12.72 58.24,12.32 Z" id="Path"></path>
                            <path d="M55.76,16.8 L55.76,33.04 C55.76,33.2 55.92,33.36 56.08,33.36 C56.24,33.36 56.4,33.2 56.4,33.04 L56.4,16.8 C56.4,16.64 56.24,16.48 56.08,16.48 C55.92,16.48 55.76,16.64 55.76,16.8 Z" id="Path"></path>
                            <path d="M52.72,19.76 L52.72,30.08 C52.72,30.24 52.88,30.4 53.04,30.4 C53.2,30.4 53.36,30.24 53.36,30.08 L53.36,19.76 C53.36,19.6 53.2,19.44 53.04,19.44 C52.88,19.44 52.72,19.6 52.72,19.76 Z" id="Path"></path>
                            <path d="M1.2,53.52 C1.2,53.92 1.6,54.32 2,54.32 C2,54.32 2,54.32 2,54.32 C2.48,54.32 2.8,53.92 2.8,53.52 C2.8,53.2 2.64,47.28 6.96,43.52 C6.4,43.36 5.84,43.12 5.28,42.96 C1.04,47.2 1.2,53.44 1.2,53.52 Z" id="Path"></path>
                            <path d="M53.84,43.44 C58.08,47.28 58,53.12 58,53.44 C58,53.92 58.32,54.24 58.8,54.24 C58.8,54.24 58.8,54.24 58.8,54.24 C59.2,54.24 59.6,53.92 59.6,53.44 C59.6,53.36 59.76,47.2 55.52,42.8 C54.96,43.04 54.4,43.28 53.84,43.44 Z" id="Path"></path>
                            <path d="M39.68,4.8 C37.52,2 34.16,0.16 30.4,0.16 C26.64,0.16 23.2,2 21.12,4.8 C9.92,5.68 0.32,8.24 0.32,12.16 L0.32,13.2 L0.32,37.44 C0.32,39.36 2.56,40.88 6.08,42.16 C6.64,42.32 7.28,42.56 7.92,42.72 C13.76,44.4 22.24,45.2 30.48,45.2 C38.64,45.2 47.12,44.32 52.96,42.72 C53.6,42.56 54.24,42.32 54.8,42.16 C58.4,40.96 60.56,39.36 60.56,37.44 L60.56,13.2 L60.56,12.16 C60.56,8.16 50.88,5.68 39.68,4.8 Z M30.4,1.76 C33.12,1.76 35.6,2.88 37.44,4.64 C35.12,4.48 32.72,4.4 30.4,4.4 C28.08,4.4 25.68,4.48 23.36,4.64 C25.2,2.8 27.68,1.76 30.4,1.76 Z M30.4,43.6 C21.76,43.6 14.72,42.72 9.84,41.6 C10.96,41.12 12.16,40.72 13.6,40.48 C22.8,39.04 24.88,34.56 25.28,32.16 C26.8,33.2 28.48,33.84 30.4,33.84 C32.24,33.84 34,33.2 35.52,32.16 C35.92,34.56 38,38.96 47.2,40.48 C48.64,40.72 49.92,41.12 51.04,41.6 C46,42.72 39.04,43.6 30.4,43.6 Z M22.32,16.88 C22.24,16.72 22.08,16.72 21.92,16.8 L18,19.2 L18,18.32 L22.24,15.68 C22.4,15.6 22.4,15.44 22.32,15.28 C22.24,15.12 22.08,15.12 21.92,15.2 L18,17.6 L18,12.88 C18,12.32 18.48,11.92 18.96,11.92 L19.44,11.92 L41.2,11.92 L41.68,11.92 C42.24,11.92 42.64,12.4 42.64,12.88 L42.64,21.04 C42.64,21.6 42.24,22 41.68,22 L40.8,22 L34.56,22 L32.88,19.2 C32.32,18.32 31.44,17.76 30.4,17.76 C29.36,17.76 28.4,18.32 27.92,19.2 L26.24,22.08 L20,22.08 L18.96,22.08 C18.4,22.08 18,21.6 18,21.12 L18,20 L22.24,17.36 C22.4,17.2 22.48,17.04 22.32,16.88 Z M26.72,23.68 C27.04,23.68 27.28,23.52 27.44,23.2 C27.44,23.2 27.44,23.12 27.44,23.12 L29.2,20 C29.44,19.6 29.84,19.36 30.32,19.36 C30.8,19.36 31.2,19.6 31.44,20 L33.2,23.04 C33.2,23.04 33.28,23.2 33.28,23.2 C33.44,23.52 33.68,23.68 34,23.68 L39.68,23.68 C38.16,28 34.56,32.24 30.4,32.24 C26.24,32.24 22.64,28 21.12,23.6 L26.72,23.6 L26.72,23.68 Z M58.96,13.2 L58.96,37.44 C58.96,38.56 56.96,39.84 53.2,40.96 C51.68,40 49.76,39.2 47.44,38.88 C37.2,37.28 36.96,31.92 37.04,30.96 C39.04,29.04 40.56,26.4 41.44,23.68 L41.84,23.68 C43.28,23.68 44.4,22.56 44.4,21.12 L44.4,20 L44.88,20 C45.36,20 45.68,19.68 45.68,19.2 L45.68,15.68 C45.68,15.2 45.36,14.88 44.88,14.88 L44.4,14.88 L44.4,12.96 C44.4,11.6 43.36,10.48 42,10.4 C41.84,9.44 41.6,8.48 41.28,7.52 C40.72,7.44 40.08,7.44 39.44,7.36 C39.92,8.32 40.24,9.28 40.4,10.32 L20.4,10.32 C20.56,9.28 20.88,8.24 21.36,7.36 C20.72,7.44 20.16,7.44 19.52,7.52 C19.12,8.4 18.88,9.36 18.8,10.4 C17.44,10.48 16.4,11.6 16.4,12.96 L16.4,14.88 L15.92,14.88 C15.44,14.88 15.12,15.2 15.12,15.68 L15.12,19.2 C15.12,19.68 15.44,20 15.92,20 L16.4,20 L16.4,21.12 C16.4,22.56 17.52,23.68 18.96,23.68 L19.36,23.68 C20.24,26.4 21.76,29.04 23.76,30.96 C23.76,31.84 23.52,37.28 13.36,38.88 C11.04,39.28 9.12,40 7.6,40.96 C3.92,39.84 1.84,38.56 1.84,37.44 L1.84,13.2 L1.84,12.16 C1.84,10.16 8.56,7.52 20,6.48 C20.64,6.4 21.28,6.4 21.92,6.32 C24.56,6.16 27.36,6 30.4,6 C33.44,6 36.24,6.08 38.8,6.32 C39.44,6.4 40.08,6.4 40.72,6.48 C52.16,7.52 58.88,10.16 58.88,12.24 L58.88,13.2 L58.96,13.2 Z" id="Shape"></path>
                        </g>
                    </g>
                </g>
            </g>
        </g>
    </g>
</svg>