<?xml version="1.0" encoding="UTF-8"?>
<svg width="92px" height="92px" viewBox="0 0 92 92" version="1.1" xmlns="http://www.w3.org/2000/svg" xmlns:xlink="http://www.w3.org/1999/xlink">
    <title>Group 16</title>
    <g id="ESRA" stroke="none" stroke-width="1" fill="none" fill-rule="evenodd">
        <g transform="translate(-1235.000000, -780.000000)" id="Group">
            <g transform="translate(20.000000, 780.000000)">
                <g id="consultancy" transform="translate(1161.000000, 0.000000)">
                    <g id="Group-16" transform="translate(54.000000, 0.000000)">
                        <circle id="Oval-Copy-2" fill="#4299B7" cx="46" cy="46" r="46"></circle>
                        <g id="staffing" transform="translate(27.000000, 18.000000)" fill="#FFFFFF" fill-rule="nonzero">
                            <path d="M18.13,5.67 C17.5,5.46 16.87,5.39 16.17,5.39 C16.1,5.39 16.1,5.39 16.03,5.39 C16.03,5.39 16.03,5.39 16.03,5.39 C15.4,5.39 14.77,5.46 14.21,5.6 C10.99,6.44 8.61,9.31 8.61,12.81 C8.61,16.17 10.85,19.04 14,19.95 C14.63,20.16 15.26,20.23 15.96,20.23 C15.96,20.23 16.03,20.23 16.03,20.23 C16.03,20.23 16.03,20.23 16.03,20.23 C16.66,20.23 17.22,20.16 17.85,20.02 C21.07,19.18 23.52,16.31 23.52,12.81 C23.52,9.45 21.21,6.58 18.13,5.67 Z M22.12,12.81 C22.12,13.3 22.05,13.79 21.91,14.28 L19.6,14.28 C19.67,13.79 19.74,13.3 19.74,12.74 C19.74,12.25 19.74,11.83 19.67,11.41 L21.91,11.41 C22.05,11.83 22.12,12.32 22.12,12.81 Z M16.03,18.41 C15.26,17.64 14.63,16.73 14.28,15.61 L17.85,15.61 C17.43,16.73 16.8,17.71 16.03,18.41 Z M13.93,14.28 C13.86,13.79 13.79,13.37 13.79,12.88 C13.79,12.39 13.86,11.9 13.93,11.41 L18.2,11.41 C18.27,11.83 18.34,12.32 18.34,12.74 C18.34,13.23 18.27,13.79 18.2,14.28 L13.93,14.28 L13.93,14.28 Z M10.01,12.81 C10.01,12.32 10.08,11.83 10.22,11.34 L12.53,11.34 C12.46,11.83 12.39,12.32 12.39,12.81 C12.39,13.3 12.46,13.79 12.46,14.21 L10.15,14.21 C10.08,13.79 10.01,13.3 10.01,12.81 Z M16.1,7.14 C16.87,7.91 17.5,8.89 17.85,10.01 L14.21,10.01 C14.7,8.89 15.33,7.84 16.1,7.14 Z M21.35,10.01 L19.32,10.01 C19.04,8.96 18.55,7.98 17.92,7.14 C19.39,7.56 20.65,8.61 21.35,10.01 Z M14.28,7.07 C13.65,7.91 13.09,8.89 12.74,10.01 L10.71,10.01 C11.48,8.61 12.74,7.49 14.28,7.07 Z M10.71,15.68 L12.74,15.68 C13.09,16.8 13.58,17.78 14.21,18.62 C12.74,18.13 11.48,17.01 10.71,15.68 Z M17.71,18.62 C18.41,17.78 18.9,16.73 19.25,15.68 L21.35,15.68 C20.65,17.08 19.32,18.13 17.71,18.62 Z" id="Shape"></path>
                            <path d="M16.03,42.91 C17.36,42.91 18.41,41.86 18.41,40.53 C18.41,39.2 17.36,38.15 16.03,38.15 C14.7,38.15 13.65,39.2 13.65,40.53 C13.65,41.86 14.77,42.91 16.03,42.91 Z M16.03,39.55 C16.59,39.55 17.01,39.97 17.01,40.53 C17.01,41.09 16.59,41.51 16.03,41.51 C15.47,41.51 15.05,41.09 15.05,40.53 C15.05,39.97 15.54,39.55 16.03,39.55 Z" id="Shape"></path>
                            <path d="M53.83,55.3 L44.24,39.9 L36.33,11.62 C35.7,9.24 33.25,7.77 30.87,8.4 C30.1,8.61 29.47,8.96 28.91,9.52 L28.91,2.73 C28.91,1.61 28,0.63 26.81,0.63 L5.32,0.63 C4.2,0.63 3.22,1.54 3.22,2.73 L3.22,15.12 C1.4,15.47 0,17.08 0,18.97 C0,20.3 0.7,21.49 1.75,22.19 C0.7,22.89 0,24.08 0,25.41 C0,26.74 0.7,27.93 1.75,28.63 C0.7,29.33 0,30.52 0,31.85 C0,33.18 0.7,34.37 1.75,35.07 C0.7,35.77 0,36.96 0,38.29 C0,40.18 1.4,41.79 3.15,42.07 L3.15,43.12 C3.15,44.24 4.06,45.22 5.25,45.22 L10.71,45.22 L25.34,51.52 L32.34,63.77 C32.48,63.98 32.69,64.12 32.97,64.12 C33.11,64.12 33.18,64.12 33.32,64.05 C33.67,63.84 33.74,63.42 33.6,63.07 L26.53,50.68 C26.46,50.54 26.32,50.47 26.18,50.4 L14.28,45.29 L26.81,45.29 C27.93,45.29 28.91,44.38 28.91,43.19 L28.91,39.41 C29.12,39.9 29.33,40.39 29.61,40.81 C29.82,41.16 30.24,41.3 30.59,41.09 C30.94,40.88 31.08,40.46 30.87,40.11 C26.18,31.64 31.64,25.69 31.85,25.48 C31.99,25.27 32.06,25.06 31.99,24.85 L28.98,13.51 C28.56,11.83 29.54,10.15 31.15,9.73 C32.83,9.31 34.51,10.29 34.93,11.97 L42.84,40.32 C42.84,40.39 42.91,40.46 42.91,40.53 L52.64,56 C52.78,56.21 52.99,56.35 53.2,56.35 C53.34,56.35 53.48,56.35 53.55,56.21 C53.9,56.07 53.97,55.65 53.83,55.3 Z M4.62,2.73 C4.62,2.38 4.9,2.03 5.32,2.03 L26.88,2.03 C27.23,2.03 27.58,2.31 27.58,2.73 L27.58,35.77 L6.86,35.77 C6.65,35.49 6.37,35.28 6.09,35.07 C7.14,34.37 7.84,33.18 7.84,31.85 C7.84,30.52 7.14,29.33 6.09,28.63 C7.14,27.93 7.84,26.74 7.84,25.41 C7.84,24.08 7.14,22.89 6.09,22.19 C7.14,21.49 7.84,20.3 7.84,18.97 C7.84,17.08 6.44,15.47 4.69,15.12 L4.69,2.73 L4.62,2.73 Z M1.4,18.97 C1.4,17.85 2.17,16.94 3.15,16.59 C3.36,16.52 3.64,16.45 3.85,16.45 C4.06,16.45 4.34,16.52 4.55,16.59 C5.6,16.87 6.3,17.85 6.3,18.97 C6.3,20.09 5.53,21 4.55,21.35 C4.34,21.42 4.06,21.49 3.85,21.49 C3.64,21.49 3.36,21.42 3.15,21.35 C2.17,21 1.4,20.09 1.4,18.97 Z M1.4,25.41 C1.4,24.29 2.17,23.38 3.15,23.03 C3.36,22.96 3.64,22.89 3.85,22.89 C4.06,22.89 4.34,22.96 4.55,23.03 C5.6,23.31 6.3,24.29 6.3,25.41 C6.3,26.53 5.53,27.44 4.55,27.79 C4.34,27.86 4.06,27.93 3.85,27.93 C3.64,27.93 3.36,27.86 3.15,27.79 C2.17,27.44 1.4,26.53 1.4,25.41 Z M1.4,31.85 C1.4,30.73 2.17,29.82 3.15,29.47 C3.36,29.4 3.64,29.33 3.85,29.33 C4.06,29.33 4.34,29.4 4.55,29.47 C5.6,29.75 6.3,30.73 6.3,31.85 C6.3,32.97 5.53,33.88 4.55,34.23 C4.34,34.3 4.06,34.37 3.85,34.37 C3.64,34.37 3.36,34.3 3.15,34.23 C2.17,33.95 1.4,32.97 1.4,31.85 Z M1.4,38.29 C1.4,37.17 2.17,36.26 3.15,35.91 C3.36,35.84 3.64,35.77 3.85,35.77 C4.06,35.77 4.34,35.84 4.55,35.91 C5.6,36.19 6.3,37.17 6.3,38.29 C6.3,39.41 5.53,40.32 4.55,40.67 C4.34,40.74 4.06,40.81 3.85,40.81 C3.64,40.81 3.36,40.74 3.15,40.67 C2.17,40.39 1.4,39.48 1.4,38.29 Z M27.51,43.19 C27.51,43.54 27.23,43.89 26.81,43.89 L5.32,43.89 C4.97,43.89 4.62,43.61 4.62,43.19 L4.62,42.14 C6.44,41.79 7.77,40.25 7.77,38.36 C7.77,37.94 7.7,37.59 7.63,37.24 L27.51,37.24 L27.51,43.19 Z M30.59,24.92 C30.24,25.34 29.54,26.32 28.91,27.58 L28.91,18.69 L30.59,24.92 Z" id="Shape"></path>
                        </g>
                    </g>
                </g>
            </g>
        </g>
    </g>
</svg>