<?xml version="1.0" encoding="UTF-8"?>
<svg width="92px" height="92px" viewBox="0 0 92 92" version="1.1" xmlns="http://www.w3.org/2000/svg" xmlns:xlink="http://www.w3.org/1999/xlink">
    <title>Group 11</title>
    <g id="ESRA" stroke="none" stroke-width="1" fill="none" fill-rule="evenodd">
        <g transform="translate(-308.000000, -780.000000)" id="Group">
            <g transform="translate(20.000000, 780.000000)">
                <g id="Specialised-Sector" transform="translate(232.000000, 0.000000)">
                    <g id="Group-11" transform="translate(56.000000, 0.000000)">
                        <circle id="Oval-Copy-2" fill="#4299B7" cx="46" cy="46" r="46"></circle>
                        <g id="Group" transform="translate(18.000000, 18.000000)" fill="#FFFFFF" fill-rule="nonzero">
                            <path d="M46.4958,54 C43.2459,54 41.4801,52.6329 40.1913,51.6348 C39.1617,50.8383 38.5947,50.4 37.1916,50.4 C35.7894,50.4 35.2233,50.8383 34.1955,51.6348 C32.9067,52.6329 31.1409,54 27.8937,54 C24.6456,54 22.8798,52.6329 21.591,51.6348 C20.5623,50.8383 19.9953,50.4 18.5931,50.4 C17.1909,50.4 16.6248,50.8383 15.597,51.6348 C14.3082,52.6329 12.5433,54 9.2952,54 C6.048,54 4.2831,52.632 2.9943,51.6339 C1.9665,50.8383 1.4004,50.4 0,50.4 L0,52.2 C0.7848,52.2 0.954,52.3314 1.8927,53.0577 C3.2166,54.0837 5.4324,55.8 9.2952,55.8 C13.1589,55.8 15.3747,54.0837 16.6995,53.0577 C17.6373,52.3314 17.8065,52.2 18.5931,52.2 C19.3806,52.2 19.5489,52.3314 20.4885,53.0586 C21.8124,54.0837 24.03,55.8 27.8937,55.8 C31.7565,55.8 33.9732,54.0837 35.2989,53.0577 C36.2358,52.3314 36.405,52.2 37.1916,52.2 C37.98,52.2 38.1492,52.3314 39.0897,53.0586 C40.4136,54.0837 42.6312,55.8 46.4958,55.8 C50.3595,55.8 52.5771,54.0846 53.9019,53.0586 C54.8424,52.3314 55.0116,52.2 55.8,52.2 L55.8,50.4 C54.396,50.4 53.829,50.8383 52.8003,51.6348 C51.5106,52.6329 49.7448,54 46.4958,54 Z" id="Path"></path>
                            <path d="M46.4958,50.4 C44.4771,50.4 43.5123,49.653 42.3936,48.7881 C41.1903,47.8566 39.825,46.8 37.1916,46.8 C34.5591,46.8 33.1956,47.8566 31.9914,48.7881 C30.8745,49.653 29.9097,50.4 27.8937,50.4 C25.8759,50.4 24.912,49.653 23.7942,48.7881 C22.59,47.8566 21.2256,46.8 18.5931,46.8 C15.9606,46.8 14.5971,47.8566 13.3929,48.7881 C12.276,49.653 11.3121,50.4 9.2952,50.4 C7.2792,50.4 6.3144,49.653 5.1984,48.7881 C3.9951,47.8566 2.6316,46.8 0,46.8 L0,48.6 C2.016,48.6 2.9808,49.347 4.0968,50.2119 C5.3001,51.1434 6.6636,52.2 9.2952,52.2 C11.9268,52.2 13.2912,51.1434 14.4945,50.2119 C15.6114,49.347 16.5762,48.6 18.5931,48.6 C20.6109,48.6 21.5748,49.347 22.6926,50.2119 C23.8959,51.1434 25.2603,52.2 27.8937,52.2 C30.5262,52.2 31.8897,51.1434 33.0939,50.2119 C34.2099,49.347 35.1747,48.6 37.1916,48.6 C39.2103,48.6 40.1751,49.347 41.2929,50.2119 C42.4971,51.1434 43.8624,52.2 46.4958,52.2 C49.1292,52.2 50.4945,51.1434 51.6987,50.2119 C52.8165,49.347 53.7813,48.6 55.8,48.6 L55.8,46.8 C53.1666,46.8 51.8013,47.8566 50.5971,48.7881 C49.4793,49.653 48.5145,50.4 46.4958,50.4 Z" id="Path"></path>
                            <path d="M49.842,37.8 L53.1,37.8 C54.5886,37.8 55.8,36.5886 55.8,35.1 L55.8,31.5 C55.8,30.3282 55.0449,29.3382 54,28.9656 L54,9 L50.4,9 L50.4,0 L48.6,0 L48.6,9 L45,9 L45,5.4 L43.2,5.4 L43.2,9 L39.6,9 L39.6,16.2 L37.7055,16.2 L35.9055,0 L27.0945,0 L25.2945,16.2 L23.4,16.2 L23.4,28.8 L21.6,28.8 L21.6,23.4 L19.3815,23.4 L8.5815,7.2 L0,7.2 L0,9 L0,9.2232 L0,21.6 L1.8,21.6 L1.8,12.6234 L7.5357,23.4576 C5.3226,23.7384 3.6,25.6122 3.6,27.9 L3.6,28.8 L2.7,28.8 C1.2114,28.8 0,30.0114 0,31.5 L0,35.1 C0,36.5886 1.2114,37.8 2.7,37.8 L5.958,37.8 C8.4609,39.9123 9.9,42.975 9.9,46.2627 L9.9,46.7415 C9.7308,46.7838 9.5454,46.8 9.2952,46.8 C8.5104,46.8 8.3412,46.6686 7.4025,45.9423 C6.0786,44.9163 3.8619,43.2 0,43.2 L0,45 C3.2463,45 5.0112,46.3671 6.3009,47.3661 C7.3287,48.1617 7.8948,48.6 9.2952,48.6 C10.6965,48.6 11.2626,48.1617 12.2913,47.3652 C13.5801,46.3671 15.345,45 18.5931,45 C21.8412,45 23.607,46.3671 24.8958,47.3652 C25.9245,48.1617 26.4906,48.6 27.8937,48.6 C29.2959,48.6 29.862,48.1617 30.8898,47.3652 C32.1777,46.3671 33.9435,45 37.1916,45 C40.4406,45 42.2064,46.3671 43.4961,47.3652 C44.5248,48.1617 45.0918,48.6 46.4958,48.6 C47.8998,48.6 48.4668,48.1617 49.4955,47.3652 C50.7852,46.3671 52.551,45 55.8,45 L55.8,43.2 C51.9363,43.2 49.7187,44.9154 48.3939,45.9414 C47.4543,46.6686 47.2851,46.8 46.4958,46.8 C46.2501,46.8 46.0674,46.7838 45.9,46.7451 L45.9,46.2636 C45.9,42.975 47.3391,39.9123 49.842,37.8 Z M41.4,10.8 L52.2,10.8 L52.2,28.8 L45,28.8 L45,16.2 L41.4,16.2 L41.4,10.8 Z M28.3059,5.4 L34.695,5.4 L34.7049,5.4918 L31.5,7.0938 L28.2951,5.4918 L28.3059,5.4 Z M35.4852,12.5136 L35.7174,14.6016 L33.5133,13.5 L35.4852,12.5136 Z M31.5,12.4938 L28.1124,10.8 L31.5,9.1062 L34.8876,10.8 L31.5,12.4938 Z M33.5133,8.1 L34.9173,7.398 L35.082,8.8839 L33.5133,8.1 Z M29.4867,8.1 L27.918,8.8848 L28.0827,7.3989 L29.4867,8.1 Z M29.4876,13.5 L27.2826,14.6025 L27.5148,12.5136 L29.4876,13.5 Z M31.5,14.5062 L34.8885,16.2 L28.1133,16.2 L31.5,14.5062 Z M34.2945,1.8 L34.4943,3.6 L28.5057,3.6 L28.7055,1.8 L34.2945,1.8 Z M25.2,18 L43.2,18 L43.2,28.8 L41.4,28.8 L41.4,22.5 C41.4,21.0114 40.1886,19.8 38.7,19.8 C37.2114,19.8 36,21.0114 36,22.5 L36,28.8 L32.4,28.8 L32.4,22.5 C32.4,21.0114 31.1886,19.8 29.7,19.8 C28.2114,19.8 27,21.0114 27,22.5 L27,28.8 L25.2,28.8 L25.2,18 Z M39.6,28.8 L37.8,28.8 L37.8,22.5 C37.8,22.0032 38.2041,21.6 38.7,21.6 C39.1959,21.6 39.6,22.0032 39.6,22.5 L39.6,28.8 Z M30.6,28.8 L28.8,28.8 L28.8,22.5 C28.8,22.0032 29.2041,21.6 29.7,21.6 C30.1959,21.6 30.6,22.0032 30.6,22.5 L30.6,28.8 Z M8.2116,9.8901 L11.8188,15.3 L5.5062,15.3 L8.2116,9.8901 Z M13.0185,17.1 L13.2948,17.5149 L9.4023,23.1372 L6.2064,17.1 L13.0185,17.1 Z M14.3694,19.1259 L17.2188,23.4 L11.4102,23.4 L14.3694,19.1259 Z M6.6438,9 L4.3488,13.59 L1.9188,9 L6.6438,9 L6.6438,9 Z M5.4,27.9 C5.4,26.4114 6.6114,25.2 8.1,25.2 L19.8,25.2 L19.8,28.8 L5.4,28.8 L5.4,27.9 Z M1.8,35.1 L1.8,31.5 C1.8,31.0032 2.2041,30.6 2.7,30.6 L53.1,30.6 C53.5959,30.6 54,31.0032 54,31.5 L54,35.1 C54,35.5968 53.5959,36 53.1,36 L2.7,36 C2.2041,36 1.8,35.5968 1.8,35.1 Z M37.1916,43.2 C33.3288,43.2 31.1121,44.9163 29.7864,45.9423 C28.8486,46.6686 28.6794,46.8 27.8937,46.8 C27.1062,46.8 26.9379,46.6686 25.9983,45.9414 C24.6735,44.9163 22.4568,43.2 18.5931,43.2 C15.1533,43.2 13.0239,44.5581 11.6622,45.5805 C11.5101,42.6762 10.4004,39.9582 8.5113,37.8 L47.2905,37.8 C45.3987,39.9609 44.289,42.6825 44.1387,45.5904 C42.777,44.5671 40.6449,43.2 37.1916,43.2 Z" id="Shape"></path>
                            <rect id="Rectangle" x="43.2" y="12.6" width="7.2" height="1.8"></rect>
                            <rect id="Rectangle" x="46.8" y="16.2" width="3.6" height="1.8"></rect>
                            <rect id="Rectangle" x="46.8" y="19.8" width="3.6" height="1.8"></rect>
                            <rect id="Rectangle" x="46.8" y="23.4" width="3.6" height="1.8"></rect>
                            <rect id="Rectangle" x="3.6" y="32.4" width="1.8" height="1.8"></rect>
                            <rect id="Rectangle" x="7.2" y="32.4" width="1.8" height="1.8"></rect>
                            <rect id="Rectangle" x="10.8" y="32.4" width="1.8" height="1.8"></rect>
                        </g>
                    </g>
                </g>
            </g>
        </g>
    </g>
</svg>