<?xml version="1.0" encoding="UTF-8"?>
<svg width="92px" height="92px" viewBox="0 0 92 92" version="1.1" xmlns="http://www.w3.org/2000/svg" xmlns:xlink="http://www.w3.org/1999/xlink">
    <title>Group 14</title>
    <g id="ESRA" stroke="none" stroke-width="1" fill="none" fill-rule="evenodd">
        <g transform="translate(-772.000000, -780.000000)" id="Group">
            <g transform="translate(20.000000, 780.000000)">
                <g id="Nationalisation" transform="translate(697.000000, 0.000000)">
                    <g id="Group-14" transform="translate(55.000000, 0.000000)">
                        <circle id="Oval-Copy" fill="#4299B7" cx="46" cy="46" r="46"></circle>
                        <g id="natioanlisation_logo" transform="translate(6.000000, 23.000000)">
                            <g id="arab_man" fill="#FFFFFF" fill-rule="nonzero">
                                <g id="Group">
                                    <path d="M0.855,44.685 C0.81,44.685 0.765,44.685 0.765,44.685 C0.495,44.64 0.315,44.325 0.36,44.055 L2.025,36.135 C2.025,36.135 2.025,36.09 2.025,36.09 C2.61,34.155 4.095,32.67 6.03,32.13 C6.795,31.905 7.56,31.725 8.325,31.5 C9.225,31.23 10.17,31.005 11.07,30.735 C14.58,29.745 15.435,28.35 16.065,26.91 C16.155,26.73 16.245,26.505 16.29,26.28 C16.38,26.1 16.425,25.92 16.515,25.74 C16.65,25.47 16.92,25.335 17.19,25.47 C17.46,25.605 17.595,25.875 17.46,26.145 C17.37,26.325 17.325,26.505 17.235,26.685 C17.145,26.91 17.055,27.09 16.965,27.315 C16.29,28.935 15.255,30.645 11.295,31.77 C10.395,32.04 9.45,32.265 8.55,32.535 C7.785,32.76 7.02,32.94 6.3,33.165 C4.725,33.615 3.51,34.83 3.015,36.405 L1.395,44.28 C1.305,44.55 1.08,44.685 0.855,44.685 Z" id="Path"></path>
                                    <path d="M40.545,44.685 C40.32,44.685 40.095,44.505 40.005,44.28 L38.34,36.36 C37.89,34.785 36.63,33.57 35.055,33.12 C34.29,32.895 33.525,32.715 32.805,32.49 C31.905,32.22 30.96,31.995 30.06,31.725 C26.55,30.735 25.29,29.295 24.48,27.495 C24.345,27.225 24.255,26.91 24.12,26.64 C24.03,26.46 23.985,26.28 23.895,26.1 C23.76,25.83 23.895,25.515 24.165,25.425 C24.435,25.29 24.75,25.425 24.84,25.695 C24.93,25.875 24.975,26.055 25.065,26.235 C25.155,26.505 25.29,26.775 25.38,27.045 C25.965,28.35 26.82,29.7 30.285,30.69 C31.185,30.96 32.13,31.185 33.03,31.455 C33.795,31.68 34.56,31.86 35.325,32.085 C37.26,32.625 38.79,34.11 39.33,36.045 C39.33,36.045 39.33,36.09 39.33,36.09 L40.995,44.01 C41.04,44.28 40.86,44.595 40.59,44.64 C40.635,44.685 40.59,44.685 40.545,44.685 Z" id="Path"></path>
                                    <path d="M20.7,27.63 C19.17,27.63 17.595,27.09 16.335,26.01 C13.5,23.625 11.745,19.8 11.115,14.625 C11.07,14.355 11.295,14.085 11.565,14.04 C11.88,13.995 12.105,14.22 12.15,14.49 C12.735,19.395 14.4,23.04 16.965,25.2 C19.17,27.045 22.14,27.045 24.345,25.2 C27,22.995 28.62,19.395 29.25,14.445 C29.295,14.175 29.565,13.95 29.835,13.995 C30.105,14.04 30.33,14.31 30.285,14.58 C29.655,19.8 27.9,23.625 25.065,26.01 C23.805,27.09 22.23,27.63 20.7,27.63 Z" id="Path"></path>
                                    <path d="M33.48,32.715 C33.48,32.715 33.435,32.715 33.48,32.715 C33.165,32.67 32.94,32.445 32.94,32.13 C33.66,22.5 32.445,14.715 31.275,9.855 C30.42,6.39 28.215,3.555 25.2,2.07 C23.085,1.035 20.745,1.08 20.745,1.08 C20.43,1.08 20.205,0.855 20.205,0.585 C20.16,0.27 20.385,0 20.7,0 C20.79,0 23.31,-0.09 25.695,1.08 C28.98,2.745 31.41,5.85 32.31,9.585 C33.48,14.49 34.74,22.41 34.02,32.175 C33.975,32.49 33.75,32.715 33.48,32.715 Z" id="Path"></path>
                                    <path d="M7.92,32.715 C7.65,32.715 7.425,32.49 7.38,32.22 C6.66,22.455 7.92,14.535 9.09,9.63 C9.99,5.85 12.42,2.745 15.75,1.08 C18.135,-0.09 20.61,2.16840434e-19 20.7,2.16840434e-19 C21.015,2.16840434e-19 21.24,0.27 21.195,0.54 C21.195,0.855 20.925,1.08 20.655,1.035 C20.61,1.035 18.315,0.99 16.2,2.025 C13.185,3.51 10.935,6.39 10.125,9.81 C8.955,14.67 7.74,22.455 8.46,32.085 C8.46,32.4 8.235,32.67 7.92,32.715 C7.965,32.715 7.92,32.715 7.92,32.715 Z" id="Path"></path>
                                    <g transform="translate(8.100000, 9.000000)" id="Path">
                                        <path d="M12.6,6.75 C9.225,6.75 5.94,6.48 3.42,5.985 C2.25,5.76 1.305,5.49 0.495,5.175 C0.225,5.085 0.09,4.77 0.18,4.5 C0.27,4.23 0.585,4.095 0.855,4.185 C1.575,4.455 2.475,4.725 3.6,4.95 C6.075,5.445 9.27,5.715 12.6,5.715 C15.885,5.715 19.08,5.445 21.555,4.95 C22.635,4.725 23.58,4.5 24.3,4.185 C24.57,4.095 24.885,4.23 24.975,4.5 C25.065,4.77 24.93,5.085 24.66,5.175 C23.895,5.49 22.905,5.76 21.735,5.985 C19.215,6.48 15.975,6.75 12.6,6.75 Z"></path>
                                        <path d="M12.6,2.43 C8.145,2.43 4.05,1.98 1.395,1.125 C1.125,1.035 0.945,0.72 1.035,0.45 C1.125,0.18 1.44,0 1.71,0.09 C4.23,0.9 8.325,1.35 12.6,1.35 C16.875,1.35 20.97,0.9 23.49,0.09 C23.76,0 24.075,0.18 24.165,0.45 C24.255,0.72 24.075,1.035 23.805,1.125 C21.15,1.935 17.055,2.43 12.6,2.43 Z"></path>
                                    </g>
                                    <path d="M20.34,33.93 C17.685,33.93 15.075,33.12 12.825,31.5 L12.375,31.185 C12.15,31.005 12.105,30.69 12.24,30.42 C12.42,30.195 12.735,30.15 13.005,30.285 L13.455,30.6 C17.685,33.705 23.535,33.57 27.63,30.285 C27.855,30.105 28.215,30.15 28.395,30.375 C28.575,30.6 28.53,30.96 28.305,31.14 C26.01,33.03 23.175,33.93 20.34,33.93 Z" id="Path"></path>
                                    <path d="M20.7,45 C20.385,45 20.16,44.775 20.16,44.46 L20.16,33.525 C20.16,33.21 20.385,32.985 20.7,32.985 C21.015,32.985 21.24,33.21 21.24,33.525 L21.24,44.505 C21.24,44.775 21.015,45 20.7,45 Z" id="Path"></path>
                                </g>
                            </g>
                            <g id="arab_woman" transform="translate(29.250000, 0.900000)">
                                <g id="Group" transform="translate(12.150000, 0.450000)" fill="#FFFFFF" fill-rule="nonzero">
                                    <path d="M19.9113395,1.35058972 L16.5386265,1.35058972 C13.8507468,1.35058972 11.4066875,2.44159609 9.6343193,4.19922823 C7.86199368,5.95685193 6.76188694,8.38070465 6.76188694,11.046296 L6.76188694,28.1037377 C6.76188694,30.7693207 7.86198517,33.1931396 9.6343193,34.9507718 C11.4066449,36.7084292 13.8507383,37.7994103 16.5386265,37.7994103 L19.9113395,37.7994103 C22.5992191,37.7994103 25.0433125,36.7084377 26.8156467,34.9507718 C28.5880063,33.1931481 29.6881131,30.7693291 29.6881131,28.1037377 L29.6881131,11.046296 C29.6881131,8.38071309 28.5880148,5.95686037 26.8156467,4.19922823 C25.043321,2.44160453 22.5992277,1.35058972 19.9113395,1.35058972 L19.9113395,1.35058972 Z M16.5386265,0 L19.9113395,0 C22.9751851,0 25.7600481,1.24255098 27.7785518,3.24431065 C29.7971236,5.24610409 31.05,8.00786591 31.05,11.046296 L31.05,28.1037377 C31.05,31.1421679 29.7971236,33.9038959 27.7785518,35.9056893 C25.760014,37.9075165 22.9751851,39.15 19.9113395,39.15 L16.5386265,39.15 C13.4747809,39.15 10.6899519,37.9075165 8.67141416,35.9056893 C6.65291045,33.9039297 5.4,31.1421679 5.4,28.1037377 L5.4,11.046296 C5.4,8.00786591 6.65291045,5.24607032 8.67141416,3.24431065 C10.6899519,1.24255098 13.4747809,0 16.5386265,0 Z" id="Shape"></path>
                                    <path d="M18.45,5.85047942 C16.2216323,5.85047942 14.2031016,6.82458867 12.7411233,8.39934052 C11.2663152,9.98795166 10.3540598,12.1887267 10.3540598,14.625 C10.3540598,17.0612818 11.2663152,19.2620568 12.7411233,20.8506595 C14.2031016,22.4254113 16.2216323,23.3995206 18.45,23.3995206 C20.6783677,23.3995206 22.6968984,22.4254113 24.1588767,20.8506595 C25.6336848,19.2620483 26.5459402,17.0612733 26.5459402,14.625 C26.5459402,12.1887182 25.6336848,9.98794322 24.1588767,8.39934052 C22.6968984,6.82458867 20.6783677,5.85047942 18.45,5.85047942 L18.45,5.85047942 Z M11.7520334,7.4867034 C13.4651644,5.64139144 15.8332372,4.5 18.45,4.5 C21.0667628,4.5 23.4348356,5.64139144 25.1479666,7.4867034 C26.8482679,9.31818983 27.9,11.8423625 27.9,14.625 C27.9,17.4076375 26.8482679,19.9318102 25.1479666,21.7632966 C23.4348356,23.6086086 21.0667628,24.75 18.45,24.75 C15.8332372,24.75 13.4651644,23.6086086 11.7520334,21.7632966 C10.0517321,19.9318102 9,17.4076375 9,14.625 C9,11.8423625 10.0517321,9.31818983 11.7520334,7.4867034 Z" id="Shape"></path>
                                    <path d="M10.4355343,9.45 C10.063141,9.45 9.76123084,9.75593532 9.76123084,10.1332936 C9.76123084,10.5106519 10.063141,10.8165872 10.4355343,10.8165872 L25.7596713,10.8165872 C26.6912216,13.0018798 30.3462584,24.5830744 8.07083626,33.7847332 C7.72608511,33.9262339 7.55979934,34.3242054 7.69943832,34.673553 C7.8390773,35.0229005 8.23181273,35.1914033 8.57656388,35.0499025 C33.8568763,24.6069555 27.2377446,10.714059 26.8014702,9.85806294 C26.6969734,9.61780068 26.4599052,9.45 26.1841774,9.45 L10.4354821,9.45 L10.4355343,9.45 Z" id="Path"></path>
                                    <path d="M5.48339925,29.1283813 C4.37972393,29.6819854 3.43103519,30.5000891 2.72297524,31.4975255 C1.86459129,32.7067404 1.3588997,34.1835838 1.3588997,35.7759721 L1.3588997,41.8448391 L17.8306719,41.8448391 L19.0262996,41.8448391 L35.0911779,41.8448391 L35.0911779,35.7759721 C35.0911779,34.1836177 34.5855169,32.7067404 33.7271363,31.4975255 C33.019084,30.5000891 32.0703876,29.6819921 30.9667463,29.1283813 C30.7112244,31.7663905 29.5198821,34.1406589 27.7306275,35.9139196 C25.7179167,37.9086567 22.9501719,39.1455764 19.9077163,39.1455764 L19.0262996,39.1455764 L16.5424633,39.1455764 C13.5000077,39.1455764 10.7322967,37.9086906 8.71955198,35.9139534 C6.93029736,34.1407013 5.73895003,31.7663905 5.48343322,29.1283813 L5.48339925,29.1283813 Z M1.61890075,30.719372 C2.65593244,29.2584688 4.12620295,28.1237456 5.83758635,27.5063233 C5.91940557,27.4707769 6.00965041,27.4507695 6.10454391,27.4501693 C6.47976872,27.4478351 6.78591329,27.7492799 6.78825393,28.1234846 L6.78561244,28.1251185 C6.80236414,30.7855303 7.90637543,33.2030201 9.67500085,34.9558008 C11.4404839,36.7054815 13.8700168,37.7904108 16.5424291,37.7904108 L19.0262654,37.7904108 L19.9076821,37.7904108 C22.5800944,37.7904108 25.0096612,36.7054476 26.7751103,34.9557669 C28.5314635,33.2151573 29.6321918,30.8189436 29.6637938,28.1803669 C29.6565381,28.0883664 29.6681071,27.993365 29.701109,27.900797 C29.8267637,27.5482004 30.215296,27.3639986 30.5688521,27.4893117 L30.5684508,27.4904454 C32.2986545,28.1041715 33.7851464,29.245928 34.831172,30.7193665 C35.8498846,32.1544623 36.45,33.900374 36.45,35.7759666 L36.45,42.5224168 C36.45,42.8966214 36.1457944,43.2 35.7705695,43.2 L19.0262608,43.2 L17.8306331,43.2 L0.679430453,43.2 C0.304205643,43.2 0,42.8966214 0,42.5224168 L0,35.7759666 C0,33.9003401 0.600152809,32.1544284 1.61886195,30.7193665 L1.61890075,30.719372 Z" id="Shape"></path>
                                </g>
                                <rect id="Rectangle" x="0" y="0" width="3.071997" height="3.071997"></rect>
                            </g>
                        </g>
                    </g>
                </g>
            </g>
        </g>
    </g>
</svg>