<?xml version="1.0" encoding="UTF-8"?>
<svg width="321px" height="378px" viewBox="0 0 321 378" version="1.1" xmlns="http://www.w3.org/2000/svg" xmlns:xlink="http://www.w3.org/1999/xlink">
    <title>Group</title>
    <g id="ESRA" stroke="none" stroke-width="1" fill="none" fill-rule="evenodd">
        <g id="our_value" transform="translate(-234.000000, -188.000000)">
            <g id="Group-3" transform="translate(234.000000, 129.000000)">
                <g id="Group-4">
                    <g id="Group" transform="translate(0.000000, 59.000000)">
                        <circle id="Oval" fill="#D1D1D1" cx="217.6" cy="156.8" r="98.8"></circle>
                        <circle id="Oval-Copy" fill="#4298B6" opacity="0.7" cx="98.8" cy="209.6" r="98.8"></circle>
                        <circle id="Oval-Copy-2" fill="#404040" cx="196.8" cy="278.8" r="98.8"></circle>
                        <path d="M51.1801562,210 L51.1801562,198.510234 L55.110625,198.510234 L55.110625,196.636406 L45.0650781,196.636406 L45.0650781,198.510234 L48.9955469,198.510234 L48.9955469,210 L51.1801562,210 Z M59.3792969,210.182813 C60.1532031,210.182813 60.7869531,210.071602 61.2805469,209.84918 C61.7741406,209.626758 62.2646875,209.207812 62.7521875,208.592344 L62.7521875,208.592344 L62.8253125,208.592344 L63.2549219,210 L64.7905469,210 L64.7905469,203.190234 C64.7905469,201.989766 64.4630078,201.109219 63.8079297,200.548594 C63.1528516,199.987969 62.1824219,199.707656 60.8966406,199.707656 C60.3177344,199.707656 59.7022656,199.782305 59.0502344,199.931602 C58.3982031,200.080898 57.7979687,200.29875 57.2495312,200.585156 L57.2495312,200.585156 L57.9442187,202.120781 C58.3829687,201.913594 58.84,201.733828 59.3153125,201.581484 C59.790625,201.429141 60.2872656,201.352969 60.8052344,201.352969 C61.4389844,201.352969 61.9066797,201.51293 62.2083203,201.832852 C62.5099609,202.152773 62.6607812,202.635703 62.6607812,203.281641 L62.6607812,203.281641 L62.6607812,203.820938 L60.9149219,203.875781 C59.3305469,203.924531 58.1514062,204.213984 57.3775,204.744141 C56.6035937,205.274297 56.2166406,206.060391 56.2166406,207.102422 C56.2166406,208.083516 56.4954297,208.842187 57.0530078,209.378437 C57.6105859,209.914688 58.3860156,210.182813 59.3792969,210.182813 Z M60.0557031,208.5375 C59.5194531,208.5375 59.1172656,208.414102 58.8491406,208.167305 C58.5810156,207.920508 58.4469531,207.571641 58.4469531,207.120703 C58.4469531,206.499141 58.6769922,206.037539 59.1370703,205.735898 C59.5971484,205.434258 60.3329687,205.265156 61.3445312,205.228594 L61.3445312,205.228594 L62.6425,205.17375 L62.6425,206.05125 C62.6425,206.837344 62.4063672,207.448242 61.9341016,207.883945 C61.4618359,208.319648 60.8357031,208.5375 60.0557031,208.5375 Z M69.9367187,210 L69.9367187,195.777187 L67.7886719,195.777187 L67.7886719,210 L69.9367187,210 Z M77.4228906,210.182813 C78.1114844,210.182813 78.7239062,210.131016 79.2601562,210.027422 C79.7964062,209.923828 80.3265625,209.747109 80.850625,209.497266 L80.850625,209.497266 L80.850625,207.751406 C80.2595312,208.013437 79.7065234,208.20082 79.1916016,208.313555 C78.6766797,208.426289 78.120625,208.482656 77.5234375,208.482656 C76.6154687,208.482656 75.9116406,208.219102 75.4119531,207.691992 C74.9122656,207.164883 74.6471875,206.410781 74.6167187,205.429688 L74.6167187,205.429688 L81.3533594,205.429688 L81.3533594,204.268828 C81.3533594,202.848984 80.9664062,201.733828 80.1925,200.923359 C79.4185937,200.112891 78.364375,199.707656 77.0298437,199.707656 C75.5917187,199.707656 74.4613281,200.179922 73.6386719,201.124453 C72.8160156,202.068984 72.4046875,203.366953 72.4046875,205.018359 C72.4046875,206.627109 72.8480078,207.890039 73.7346484,208.807148 C74.6212891,209.724258 75.8507031,210.182813 77.4228906,210.182813 Z M79.241875,203.875781 L74.6532812,203.875781 C74.7325,203.047031 74.9777734,202.416328 75.3891016,201.983672 C75.8004297,201.551016 76.3473437,201.334688 77.0298437,201.334688 C77.7123437,201.334688 78.2485937,201.549492 78.6385937,201.979102 C79.0285937,202.408711 79.2296875,203.040938 79.241875,203.875781 L79.241875,203.875781 Z M85.9419531,210 L85.9419531,204.963516 C85.9419531,203.702109 86.1521875,202.803281 86.5726562,202.267031 C86.993125,201.730781 87.6573437,201.462656 88.5653125,201.462656 C89.2478125,201.462656 89.7459766,201.654609 90.0598047,202.038516 C90.3736328,202.422422 90.5305469,203.004375 90.5305469,203.784375 L90.5305469,203.784375 L90.5305469,210 L92.6877344,210 L92.6877344,203.409609 C92.6877344,200.941641 91.4750781,199.707656 89.0497656,199.707656 C88.3672656,199.707656 87.7457031,199.838672 87.1850781,200.100703 C86.6244531,200.362734 86.1917969,200.734453 85.8871094,201.215859 L85.8871094,201.215859 L85.7774219,201.215859 L85.4757812,199.890469 L83.7939062,199.890469 L83.7939062,210 L85.9419531,210 Z M98.9307812,210.182813 C99.3329687,210.182813 99.7214453,210.147773 100.096211,210.077695 C100.470977,210.007617 100.777187,209.920781 101.014844,209.817187 L101.014844,209.817187 L101.014844,208.199297 C100.490781,208.363828 99.9667187,208.446094 99.4426562,208.446094 C99.0221875,208.446094 98.6824609,208.322695 98.4234766,208.075898 C98.1644922,207.829102 98.035,207.446719 98.035,206.92875 L98.035,206.92875 L98.035,201.5175 L100.914297,201.5175 L100.914297,199.890469 L98.035,199.890469 L98.035,197.641875 L96.7096094,197.641875 L95.9783594,199.780781 L94.4975781,200.566875 L94.4975781,201.5175 L95.8778125,201.5175 L95.8778125,206.965313 C95.8778125,209.110313 96.8954687,210.182813 98.9307812,210.182813 Z" id="Talent" fill="#212121" fill-rule="nonzero"></path>
                        <path d="M198.380156,144.4 L198.380156,132.910234 L202.310625,132.910234 L202.310625,131.036406 L192.265078,131.036406 L192.265078,132.910234 L196.195547,132.910234 L196.195547,144.4 L198.380156,144.4 Z M206.277656,144.4 L206.277656,139.116719 C206.277656,138.220938 206.544258,137.492734 207.077461,136.932109 C207.610664,136.371484 208.306875,136.091172 209.166094,136.091172 C209.495156,136.091172 209.812031,136.127734 210.116719,136.200859 L210.116719,136.200859 L210.326953,134.199062 C210.046641,134.138125 209.690156,134.107656 209.2575,134.107656 C208.635937,134.107656 208.055508,134.284375 207.516211,134.637812 C206.976914,134.99125 206.539687,135.469609 206.204531,136.072891 L206.204531,136.072891 L206.094844,136.072891 L205.811484,134.290469 L204.129609,134.290469 L204.129609,144.4 L206.277656,144.4 Z M214.650469,144.582813 C215.424375,144.582813 216.058125,144.471602 216.551719,144.24918 C217.045312,144.026758 217.535859,143.607813 218.023359,142.992344 L218.023359,142.992344 L218.096484,142.992344 L218.526094,144.4 L220.061719,144.4 L220.061719,137.590234 C220.061719,136.389766 219.73418,135.509219 219.079102,134.948594 C218.424023,134.387969 217.453594,134.107656 216.167812,134.107656 C215.588906,134.107656 214.973438,134.182305 214.321406,134.331602 C213.669375,134.480898 213.069141,134.69875 212.520703,134.985156 L212.520703,134.985156 L213.215391,136.520781 C213.654141,136.313594 214.111172,136.133828 214.586484,135.981484 C215.061797,135.829141 215.558437,135.752969 216.076406,135.752969 C216.710156,135.752969 217.177852,135.91293 217.479492,136.232852 C217.781133,136.552773 217.931953,137.035703 217.931953,137.681641 L217.931953,137.681641 L217.931953,138.220937 L216.186094,138.275781 C214.601719,138.324531 213.422578,138.613984 212.648672,139.144141 C211.874766,139.674297 211.487812,140.460391 211.487812,141.502422 C211.487812,142.483516 211.766602,143.242188 212.32418,143.778437 C212.881758,144.314688 213.657187,144.582813 214.650469,144.582813 Z M215.326875,142.9375 C214.790625,142.9375 214.388438,142.814102 214.120313,142.567305 C213.852187,142.320508 213.718125,141.971641 213.718125,141.520703 C213.718125,140.899141 213.948164,140.437539 214.408242,140.135898 C214.86832,139.834258 215.604141,139.665156 216.615703,139.628594 L216.615703,139.628594 L217.913672,139.57375 L217.913672,140.45125 C217.913672,141.237344 217.677539,141.848242 217.205273,142.283945 C216.733008,142.719648 216.106875,142.9375 215.326875,142.9375 Z M224.147578,132.791406 C224.525391,132.791406 224.819414,132.686289 225.029648,132.476055 C225.239883,132.26582 225.345,131.977891 225.345,131.612266 C225.345,131.228359 225.239883,130.932813 225.029648,130.725625 C224.819414,130.518438 224.525391,130.414844 224.147578,130.414844 C223.757578,130.414844 223.457461,130.518438 223.247227,130.725625 C223.036992,130.932813 222.931875,131.228359 222.931875,131.612266 C222.931875,131.977891 223.036992,132.26582 223.247227,132.476055 C223.457461,132.686289 223.757578,132.791406 224.147578,132.791406 Z M225.207891,144.4 L225.207891,134.290469 L223.059844,134.290469 L223.059844,144.4 L225.207891,144.4 Z M230.427188,144.4 L230.427188,139.363516 C230.427188,138.102109 230.637422,137.203281 231.057891,136.667031 C231.478359,136.130781 232.142578,135.862656 233.050547,135.862656 C233.733047,135.862656 234.231211,136.054609 234.545039,136.438516 C234.858867,136.822422 235.015781,137.404375 235.015781,138.184375 L235.015781,138.184375 L235.015781,144.4 L237.172969,144.4 L237.172969,137.809609 C237.172969,135.341641 235.960312,134.107656 233.535,134.107656 C232.8525,134.107656 232.230937,134.238672 231.670312,134.500703 C231.109688,134.762734 230.677031,135.134453 230.372344,135.615859 L230.372344,135.615859 L230.262656,135.615859 L229.961016,134.290469 L228.279141,134.290469 L228.279141,144.4 L230.427188,144.4 Z M241.249687,132.791406 C241.6275,132.791406 241.921523,132.686289 242.131758,132.476055 C242.341992,132.26582 242.447109,131.977891 242.447109,131.612266 C242.447109,131.228359 242.341992,130.932813 242.131758,130.725625 C241.921523,130.518438 241.6275,130.414844 241.249687,130.414844 C240.859687,130.414844 240.55957,130.518438 240.349336,130.725625 C240.139102,130.932813 240.033984,131.228359 240.033984,131.612266 C240.033984,131.977891 240.139102,132.26582 240.349336,132.476055 C240.55957,132.686289 240.859687,132.791406 241.249687,132.791406 Z M242.31,144.4 L242.31,134.290469 L240.161953,134.290469 L240.161953,144.4 L242.31,144.4 Z M247.529297,144.4 L247.529297,139.363516 C247.529297,138.102109 247.739531,137.203281 248.16,136.667031 C248.580469,136.130781 249.244687,135.862656 250.152656,135.862656 C250.835156,135.862656 251.33332,136.054609 251.647148,136.438516 C251.960977,136.822422 252.117891,137.404375 252.117891,138.184375 L252.117891,138.184375 L252.117891,144.4 L254.275078,144.4 L254.275078,137.809609 C254.275078,135.341641 253.062422,134.107656 250.637109,134.107656 C249.954609,134.107656 249.333047,134.238672 248.772422,134.500703 C248.211797,134.762734 247.779141,135.134453 247.474453,135.615859 L247.474453,135.615859 L247.364766,135.615859 L247.063125,134.290469 L245.38125,134.290469 L245.38125,144.4 L247.529297,144.4 Z M260.179922,148.897188 C261.965391,148.897188 263.330391,148.586406 264.274922,147.964844 C265.219453,147.343281 265.691719,146.459688 265.691719,145.314063 C265.691719,144.418281 265.402266,143.732734 264.823359,143.257422 C264.244453,142.782109 263.397422,142.544453 262.282266,142.544453 L262.282266,142.544453 L260.518125,142.544453 C259.939219,142.544453 259.541602,142.486563 259.325273,142.370781 C259.108945,142.255 259.000781,142.081328 259.000781,141.849766 C259.000781,141.465859 259.232344,141.130703 259.695469,140.844297 C259.9575,140.893047 260.25,140.917422 260.572969,140.917422 C261.834375,140.917422 262.824609,140.618828 263.543672,140.021641 C264.262734,139.424453 264.622266,138.604844 264.622266,137.562813 C264.622266,137.215469 264.570469,136.886406 264.466875,136.575625 C264.363281,136.264844 264.232266,136.002813 264.073828,135.789531 L264.073828,135.789531 L265.801406,135.469609 L265.801406,134.290469 L262.300547,134.290469 C262.142109,134.247813 261.905977,134.20668 261.592148,134.16707 C261.27832,134.127461 260.978203,134.107656 260.691797,134.107656 C259.412109,134.107656 258.426445,134.409297 257.734805,135.012578 C257.043164,135.615859 256.697344,136.465938 256.697344,137.562813 C256.697344,138.245313 256.860352,138.840977 257.186367,139.349805 C257.512383,139.858633 257.937422,140.225781 258.461484,140.45125 C258.041016,140.707188 257.724141,140.966172 257.510859,141.228203 C257.297578,141.490234 257.190938,141.810156 257.190938,142.187969 C257.190938,142.486562 257.283867,142.771445 257.469727,143.042617 C257.655586,143.313789 257.891719,143.510312 258.178125,143.632188 C257.47125,143.796719 256.921289,144.090742 256.528242,144.514258 C256.135195,144.937773 255.938672,145.460312 255.938672,146.081875 C255.938672,146.98375 256.30125,147.678438 257.026406,148.165938 C257.751562,148.653437 258.802734,148.897188 260.179922,148.897188 Z M260.673516,139.537188 C260.064141,139.537188 259.596445,139.366563 259.27043,139.025313 C258.944414,138.684063 258.781406,138.196562 258.781406,137.562813 C258.781406,136.886406 258.941367,136.371484 259.261289,136.018047 C259.581211,135.664609 260.051953,135.487891 260.673516,135.487891 C261.301172,135.487891 261.768867,135.666133 262.076602,136.022617 C262.384336,136.379102 262.538203,136.886406 262.538203,137.544531 C262.538203,138.872969 261.916641,139.537188 260.673516,139.537188 Z M260.243906,147.416406 C259.488281,147.416406 258.901758,147.291484 258.484336,147.041641 C258.066914,146.791797 257.858203,146.435313 257.858203,145.972188 C257.858203,145.478594 258.039492,145.08707 258.40207,144.797617 C258.764648,144.508164 259.253672,144.363438 259.869141,144.363438 L259.869141,144.363438 L261.496172,144.363438 C262.349297,144.363438 262.932773,144.456367 263.246602,144.642227 C263.56043,144.828086 263.717344,145.140391 263.717344,145.579141 C263.717344,146.133672 263.430937,146.578516 262.858125,146.913672 C262.285312,147.248828 261.413906,147.416406 260.243906,147.416406 Z" id="Training" fill="#212121" fill-rule="nonzero"></path>
                        <path d="M152.404727,287 L152.404727,275.510234 L156.335195,275.510234 L156.335195,273.636406 L146.289648,273.636406 L146.289648,275.510234 L150.220117,275.510234 L150.220117,287 L152.404727,287 Z M162.569102,287.182813 C163.257695,287.182813 163.870117,287.131016 164.406367,287.027422 C164.942617,286.923828 165.472773,286.747109 165.996836,286.497266 L165.996836,286.497266 L165.996836,284.751406 C165.405742,285.013438 164.852734,285.20082 164.337813,285.313555 C163.822891,285.426289 163.266836,285.482656 162.669648,285.482656 C161.76168,285.482656 161.057852,285.219102 160.558164,284.691992 C160.058477,284.164883 159.793398,283.410781 159.76293,282.429688 L159.76293,282.429688 L166.49957,282.429688 L166.49957,281.268828 C166.49957,279.848984 166.112617,278.733828 165.338711,277.923359 C164.564805,277.112891 163.510586,276.707656 162.176055,276.707656 C160.73793,276.707656 159.607539,277.179922 158.784883,278.124453 C157.962227,279.068984 157.550898,280.366953 157.550898,282.018359 C157.550898,283.627109 157.994219,284.890039 158.880859,285.807148 C159.7675,286.724258 160.996914,287.182813 162.569102,287.182813 Z M164.388086,280.875781 L159.799492,280.875781 C159.878711,280.047031 160.123984,279.416328 160.535313,278.983672 C160.946641,278.551016 161.493555,278.334687 162.176055,278.334687 C162.858555,278.334687 163.394805,278.549492 163.784805,278.979102 C164.174805,279.408711 164.375898,280.040937 164.388086,280.875781 L164.388086,280.875781 Z M173.016836,287.182813 C173.638398,287.182813 174.167031,287.134063 174.602734,287.036563 C175.038438,286.939062 175.448242,286.777578 175.832148,286.552109 L175.832148,286.552109 L175.832148,284.678281 C174.979023,285.153594 174.074102,285.39125 173.117383,285.39125 C172.276445,285.39125 171.638125,285.106367 171.202422,284.536602 C170.766719,283.966836 170.548867,283.115234 170.548867,281.981797 C170.548867,279.660078 171.42332,278.499219 173.172227,278.499219 C173.76332,278.499219 174.512852,278.675938 175.42082,279.029375 L175.42082,279.029375 L176.069805,277.301797 C175.21668,276.905703 174.256914,276.707656 173.190508,276.707656 C171.61832,276.707656 170.416328,277.164688 169.584531,278.07875 C168.752734,278.992813 168.336836,280.299922 168.336836,282.000078 C168.336836,283.669766 168.734453,284.950977 169.529688,285.843711 C170.324922,286.736445 171.487305,287.182813 173.016836,287.182813 Z M180.356758,287 L180.356758,281.981797 C180.356758,280.714297 180.568516,279.810898 180.992031,279.271602 C181.415547,278.732305 182.078242,278.462656 182.980117,278.462656 C183.662617,278.462656 184.160781,278.654609 184.474609,279.038516 C184.788438,279.422422 184.945352,280.004375 184.945352,280.784375 L184.945352,280.784375 L184.945352,287 L187.102539,287 L187.102539,280.409609 C187.102539,277.941641 185.877695,276.707656 183.428008,276.707656 C182.73332,276.707656 182.125469,276.841719 181.604453,277.109844 C181.083438,277.377969 180.67668,277.755781 180.38418,278.243281 L180.38418,278.243281 L180.24707,278.243281 C180.320195,277.585156 180.356758,276.966641 180.356758,276.387734 L180.356758,276.387734 L180.356758,272.777188 L178.208711,272.777188 L178.208711,287 L180.356758,287 Z M192.23957,287 L192.23957,281.963516 C192.23957,280.702109 192.449805,279.803281 192.870273,279.267031 C193.290742,278.730781 193.954961,278.462656 194.86293,278.462656 C195.54543,278.462656 196.043594,278.654609 196.357422,279.038516 C196.67125,279.422422 196.828164,280.004375 196.828164,280.784375 L196.828164,280.784375 L196.828164,287 L198.985352,287 L198.985352,280.409609 C198.985352,277.941641 197.772695,276.707656 195.347383,276.707656 C194.664883,276.707656 194.04332,276.838672 193.482695,277.100703 C192.92207,277.362734 192.489414,277.734453 192.184727,278.215859 L192.184727,278.215859 L192.075039,278.215859 L191.773398,276.890469 L190.091523,276.890469 L190.091523,287 L192.23957,287 Z M206.13332,287.182813 C207.64457,287.182813 208.823711,286.719688 209.670742,285.793437 C210.517773,284.867188 210.941289,283.578359 210.941289,281.926953 C210.941289,280.330391 210.514727,279.061367 209.661602,278.119883 C208.808477,277.178398 207.650664,276.707656 206.188164,276.707656 C204.658633,276.707656 203.473398,277.167734 202.632461,278.087891 C201.791523,279.008047 201.371055,280.287734 201.371055,281.926953 C201.371055,282.981172 201.566055,283.907422 201.956055,284.705703 C202.346055,285.503984 202.903633,286.116406 203.628789,286.542969 C204.353945,286.969531 205.188789,287.182813 206.13332,287.182813 Z M206.169883,285.427813 C204.445352,285.427813 203.583086,284.260859 203.583086,281.926953 C203.583086,280.811797 203.785703,279.955625 204.190938,279.358437 C204.596172,278.76125 205.249727,278.462656 206.151602,278.462656 C207.870039,278.462656 208.729258,279.617422 208.729258,281.926953 C208.729258,284.260859 207.876133,285.427813 206.169883,285.427813 Z M215.557305,287 L215.557305,272.777188 L213.409258,272.777188 L213.409258,287 L215.557305,287 Z M222.787539,287.182813 C224.298789,287.182813 225.47793,286.719688 226.324961,285.793437 C227.171992,284.867188 227.595508,283.578359 227.595508,281.926953 C227.595508,280.330391 227.168945,279.061367 226.31582,278.119883 C225.462695,277.178398 224.304883,276.707656 222.842383,276.707656 C221.312852,276.707656 220.127617,277.167734 219.28668,278.087891 C218.445742,279.008047 218.025273,280.287734 218.025273,281.926953 C218.025273,282.981172 218.220273,283.907422 218.610273,284.705703 C219.000273,285.503984 219.557852,286.116406 220.283008,286.542969 C221.008164,286.969531 221.843008,287.182813 222.787539,287.182813 Z M222.824102,285.427813 C221.09957,285.427813 220.237305,284.260859 220.237305,281.926953 C220.237305,280.811797 220.439922,279.955625 220.845156,279.358437 C221.250391,278.76125 221.903945,278.462656 222.80582,278.462656 C224.524258,278.462656 225.383477,279.617422 225.383477,281.926953 C225.383477,284.260859 224.530352,285.427813 222.824102,285.427813 Z M232.979336,291.497187 C234.764805,291.497187 236.129805,291.186406 237.074336,290.564844 C238.018867,289.943281 238.491133,289.059687 238.491133,287.914062 C238.491133,287.018281 238.20168,286.332734 237.622773,285.857422 C237.043867,285.382109 236.196836,285.144453 235.08168,285.144453 L235.08168,285.144453 L233.317539,285.144453 C232.738633,285.144453 232.341016,285.086563 232.124687,284.970781 C231.908359,284.855 231.800195,284.681328 231.800195,284.449766 C231.800195,284.065859 232.031758,283.730703 232.494883,283.444297 C232.756914,283.493047 233.049414,283.517422 233.372383,283.517422 C234.633789,283.517422 235.624023,283.218828 236.343086,282.621641 C237.062148,282.024453 237.42168,281.204844 237.42168,280.162812 C237.42168,279.815469 237.369883,279.486406 237.266289,279.175625 C237.162695,278.864844 237.03168,278.602812 236.873242,278.389531 L236.873242,278.389531 L238.60082,278.069609 L238.60082,276.890469 L235.099961,276.890469 C234.941523,276.847813 234.705391,276.80668 234.391563,276.76707 C234.077734,276.727461 233.777617,276.707656 233.491211,276.707656 C232.211523,276.707656 231.225859,277.009297 230.534219,277.612578 C229.842578,278.215859 229.496758,279.065937 229.496758,280.162812 C229.496758,280.845312 229.659766,281.440977 229.985781,281.949805 C230.311797,282.458633 230.736836,282.825781 231.260898,283.05125 C230.84043,283.307187 230.523555,283.566172 230.310273,283.828203 C230.096992,284.090234 229.990352,284.410156 229.990352,284.787969 C229.990352,285.086563 230.083281,285.371445 230.269141,285.642617 C230.455,285.913789 230.691133,286.110313 230.977539,286.232188 C230.270664,286.396719 229.720703,286.690742 229.327656,287.114258 C228.934609,287.537773 228.738086,288.060313 228.738086,288.681875 C228.738086,289.58375 229.100664,290.278437 229.82582,290.765938 C230.550977,291.253438 231.602148,291.497187 232.979336,291.497187 Z M233.47293,282.137187 C232.863555,282.137187 232.395859,281.966563 232.069844,281.625313 C231.743828,281.284063 231.58082,280.796562 231.58082,280.162812 C231.58082,279.486406 231.740781,278.971484 232.060703,278.618047 C232.380625,278.264609 232.851367,278.087891 233.47293,278.087891 C234.100586,278.087891 234.568281,278.266133 234.876016,278.622617 C235.18375,278.979102 235.337617,279.486406 235.337617,280.144531 C235.337617,281.472969 234.716055,282.137187 233.47293,282.137187 Z M233.04332,290.016406 C232.287695,290.016406 231.701172,289.891484 231.28375,289.641641 C230.866328,289.391797 230.657617,289.035313 230.657617,288.572187 C230.657617,288.078594 230.838906,287.68707 231.201484,287.397617 C231.564062,287.108164 232.053086,286.963437 232.668555,286.963437 L232.668555,286.963437 L234.295586,286.963437 C235.148711,286.963437 235.732188,287.056367 236.046016,287.242227 C236.359844,287.428086 236.516758,287.740391 236.516758,288.179141 C236.516758,288.733672 236.230352,289.178516 235.657539,289.513672 C235.084727,289.848828 234.21332,290.016406 233.04332,290.016406 Z M240.721445,291.497187 C242.555664,291.497187 243.86582,290.446016 244.651914,288.343672 L244.651914,288.343672 L248.97543,276.890469 L246.653711,276.890469 C245.252148,280.955 244.478242,283.226445 244.331992,283.704805 C244.185742,284.183164 244.085195,284.589922 244.030352,284.925078 L244.030352,284.925078 L243.957227,284.925078 C243.853633,284.206016 243.646445,283.438203 243.335664,282.621641 L243.335664,282.621641 L241.279023,276.890469 L238.939023,276.890469 L242.997461,287 L242.622695,287.950625 C242.202227,289.151094 241.474023,289.751328 240.438086,289.751328 C240.023711,289.751328 239.655039,289.714766 239.33207,289.641641 L239.33207,289.641641 L239.33207,291.341797 C239.783008,291.445391 240.246133,291.497187 240.721445,291.497187 Z" id="Technology" fill="#FFFFFF" fill-rule="nonzero"></path>
                        <path d="M17.7050781,26 L17.7050781,23 L11.4707031,23 L11.4707031,18.5820312 L17.2714844,18.5820312 L17.2714844,15.6054688 L11.4707031,15.6054688 L11.4707031,11.84375 L17.7050781,11.84375 L17.7050781,8.8671875 L7.83789062,8.8671875 L7.83789062,26 L17.7050781,26 Z M25.0761719,26.234375 C27.0605469,26.234375 28.609375,25.7890625 29.7226562,24.8984375 C30.8359375,24.0078125 31.3925781,22.7890625 31.3925781,21.2421875 C31.3925781,20.125 31.0957031,19.1816406 30.5019531,18.4121094 C29.9082031,17.6425781 28.8105469,16.875 27.2089844,16.109375 C25.9980469,15.53125 25.2304688,15.1308594 24.90625,14.9082031 C24.5820312,14.6855469 24.3457031,14.4550781 24.1972656,14.2167969 C24.0488281,13.9785156 23.9746094,13.6992188 23.9746094,13.3789062 C23.9746094,12.8632812 24.1582031,12.4453125 24.5253906,12.125 C24.8925781,11.8046875 25.4199219,11.6445312 26.1074219,11.6445312 C26.6855469,11.6445312 27.2734375,11.71875 27.8710938,11.8671875 C28.46875,12.015625 29.2246094,12.2773438 30.1386719,12.6523438 L30.1386719,12.6523438 L31.3105469,9.828125 C30.4277344,9.4453125 29.5820312,9.1484375 28.7734375,8.9375 C27.9648438,8.7265625 27.1152344,8.62109375 26.2246094,8.62109375 C24.4121094,8.62109375 22.9921875,9.0546875 21.9648438,9.921875 C20.9375,10.7890625 20.4238281,11.9804688 20.4238281,13.4960938 C20.4238281,14.3007812 20.5800781,15.0039062 20.8925781,15.6054688 C21.2050781,16.2070312 21.6230469,16.734375 22.1464844,17.1875 C22.6699219,17.640625 23.4550781,18.1132812 24.5019531,18.6054688 C25.6191406,19.1367188 26.359375,19.5234375 26.7226562,19.765625 C27.0859375,20.0078125 27.3613281,20.2597656 27.5488281,20.5214844 C27.7363281,20.7832031 27.8300781,21.0820312 27.8300781,21.4179688 C27.8300781,22.0195312 27.6171875,22.4726562 27.1914062,22.7773438 C26.765625,23.0820312 26.1542969,23.234375 25.3574219,23.234375 C24.6933594,23.234375 23.9609375,23.1289062 23.1601562,22.9179688 C22.359375,22.7070312 21.3808594,22.34375 20.2246094,21.828125 L20.2246094,21.828125 L20.2246094,25.203125 C21.6308594,25.890625 23.2480469,26.234375 25.0761719,26.234375 Z M38.1308594,26 L38.1308594,19.4257812 L40.0644531,19.4257812 L44.1542969,26 L48.1855469,26 C47.4042969,24.875 45.7246094,22.3867188 43.1464844,18.5351562 C44.1621094,18.0898438 44.9472656,17.4746094 45.5019531,16.6894531 C46.0566406,15.9042969 46.3339844,15.0078125 46.3339844,14 C46.3339844,12.2734375 45.7753906,10.9863281 44.6582031,10.1386719 C43.5410156,9.29101562 41.8183594,8.8671875 39.4902344,8.8671875 L39.4902344,8.8671875 L34.4980469,8.8671875 L34.4980469,26 L38.1308594,26 Z M39.3027344,16.4726562 L38.1308594,16.4726562 L38.1308594,11.84375 L39.2324219,11.84375 C40.4042969,11.84375 41.2695312,12.015625 41.828125,12.359375 C42.3867188,12.703125 42.6660156,13.28125 42.6660156,14.09375 C42.6660156,14.9140625 42.3925781,15.515625 41.8457031,15.8984375 C41.2988281,16.28125 40.4511719,16.4726562 39.3027344,16.4726562 L39.3027344,16.4726562 Z M52.0996094,26 L53.3417969,21.921875 L59.5878906,21.921875 L60.8300781,26 L64.7441406,26 L58.6738281,8.796875 L54.2324219,8.796875 L48.1855469,26 L52.0996094,26 Z M58.7207031,18.875 L54.2558594,18.875 C55.4746094,14.9296875 56.2128906,12.4570312 56.4707031,11.4570312 C56.5332031,11.7382812 56.6367188,12.1210938 56.78125,12.6054688 C56.9257812,13.0898438 57.5722656,15.1796875 58.7207031,18.875 L58.7207031,18.875 Z M80.7519531,26 L86.5761719,8.8671875 L82.9082031,8.8671875 L79.6621094,19.0625 C79.1621094,20.859375 78.8691406,22.1171875 78.7832031,22.8359375 C78.7363281,22.5234375 78.6171875,21.9667969 78.4257812,21.1660156 C78.234375,20.3652344 78.0488281,19.6640625 77.8691406,19.0625 L77.8691406,19.0625 L74.6464844,8.8671875 L70.9785156,8.8671875 L76.7910156,26 L80.7519531,26 Z M90.4902344,26 L91.7324219,21.921875 L97.9785156,21.921875 L99.2207031,26 L103.134766,26 L97.0644531,8.796875 L92.6230469,8.796875 L86.5761719,26 L90.4902344,26 Z M97.1113281,18.875 L92.6464844,18.875 C93.8652344,14.9296875 94.6035156,12.4570312 94.8613281,11.4570312 C94.9238281,11.7382812 95.0273438,12.1210938 95.171875,12.6054688 C95.3164062,13.0898438 95.9628906,15.1796875 97.1113281,18.875 L97.1113281,18.875 Z M115.873047,26 L115.873047,23 L108.923828,23 L108.923828,8.8671875 L105.291016,8.8671875 L105.291016,26 L115.873047,26 Z M125.693359,26.234375 C127.154297,26.234375 128.419922,25.9804688 129.490234,25.4726562 C130.560547,24.9648438 131.378906,24.234375 131.945312,23.28125 C132.511719,22.328125 132.794922,21.21875 132.794922,19.953125 L132.794922,19.953125 L132.794922,8.8671875 L129.173828,8.8671875 L129.173828,19.3320312 C129.173828,20.6601562 128.90625,21.6347656 128.371094,22.2558594 C127.835938,22.8769531 126.974609,23.1875 125.787109,23.1875 C124.560547,23.1875 123.681641,22.8789062 123.150391,22.2617188 C122.619141,21.6445312 122.353516,20.6757812 122.353516,19.3554688 L122.353516,19.3554688 L122.353516,8.8671875 L118.732422,8.8671875 L118.732422,19.90625 C118.732422,21.8671875 119.341797,23.4121094 120.560547,24.5410156 C121.779297,25.6699219 123.490234,26.234375 125.693359,26.234375 Z M146.857422,26 L146.857422,23 L140.623047,23 L140.623047,18.5820312 L146.423828,18.5820312 L146.423828,15.6054688 L140.623047,15.6054688 L140.623047,11.84375 L146.857422,11.84375 L146.857422,8.8671875 L136.990234,8.8671875 L136.990234,26 L146.857422,26 Z M160.298828,26 L160.298828,19.90625 L161.857422,19.90625 C163.982422,19.90625 165.621094,19.4179688 166.773438,18.4414062 C167.925781,17.4648438 168.501953,16.0546875 168.501953,14.2109375 C168.501953,12.4375 167.960938,11.1035156 166.878906,10.2089844 C165.796875,9.31445312 164.216797,8.8671875 162.138672,8.8671875 L162.138672,8.8671875 L156.666016,8.8671875 L156.666016,26 L160.298828,26 Z M161.494141,16.9296875 L160.298828,16.9296875 L160.298828,11.84375 L161.951172,11.84375 C162.943359,11.84375 163.671875,12.046875 164.136719,12.453125 C164.601562,12.859375 164.833984,13.4882812 164.833984,14.3398438 C164.833984,15.1835938 164.556641,15.8261719 164.001953,16.2675781 C163.447266,16.7089844 162.611328,16.9296875 161.494141,16.9296875 L161.494141,16.9296875 Z M175.369141,26 L175.369141,19.4257812 L177.302734,19.4257812 L181.392578,26 L185.423828,26 C184.642578,24.875 182.962891,22.3867188 180.384766,18.5351562 C181.400391,18.0898438 182.185547,17.4746094 182.740234,16.6894531 C183.294922,15.9042969 183.572266,15.0078125 183.572266,14 C183.572266,12.2734375 183.013672,10.9863281 181.896484,10.1386719 C180.779297,9.29101562 179.056641,8.8671875 176.728516,8.8671875 L176.728516,8.8671875 L171.736328,8.8671875 L171.736328,26 L175.369141,26 Z M176.541016,16.4726562 L175.369141,16.4726562 L175.369141,11.84375 L176.470703,11.84375 C177.642578,11.84375 178.507812,12.015625 179.066406,12.359375 C179.625,12.703125 179.904297,13.28125 179.904297,14.09375 C179.904297,14.9140625 179.630859,15.515625 179.083984,15.8984375 C178.537109,16.28125 177.689453,16.4726562 176.541016,16.4726562 L176.541016,16.4726562 Z M194.974609,26.234375 C197.599609,26.234375 199.615234,25.4726562 201.021484,23.9492188 C202.427734,22.4257812 203.130859,20.2460938 203.130859,17.4101562 C203.130859,14.5664062 202.433594,12.3867188 201.039062,10.8710938 C199.644531,9.35546875 197.630859,8.59765625 194.998047,8.59765625 C192.365234,8.59765625 190.34375,9.34960938 188.933594,10.8535156 C187.523438,12.3574219 186.818359,14.5351562 186.818359,17.3867188 C186.818359,20.2382812 187.521484,22.4257812 188.927734,23.9492188 C190.333984,25.4726562 192.349609,26.234375 194.974609,26.234375 Z M194.974609,23.1875 C193.529297,23.1875 192.443359,22.703125 191.716797,21.734375 C190.990234,20.765625 190.626953,19.3242188 190.626953,17.4101562 C190.626953,15.4960938 190.994141,14.0527344 191.728516,13.0800781 C192.462891,12.1074219 193.552734,11.6210938 194.998047,11.6210938 C197.880859,11.6210938 199.322266,13.5507812 199.322266,17.4101562 C199.322266,21.2617188 197.873047,23.1875 194.974609,23.1875 Z M210.314453,26 L210.314453,19.90625 L211.873047,19.90625 C213.998047,19.90625 215.636719,19.4179688 216.789062,18.4414062 C217.941406,17.4648438 218.517578,16.0546875 218.517578,14.2109375 C218.517578,12.4375 217.976562,11.1035156 216.894531,10.2089844 C215.8125,9.31445312 214.232422,8.8671875 212.154297,8.8671875 L212.154297,8.8671875 L206.681641,8.8671875 L206.681641,26 L210.314453,26 Z M211.509766,16.9296875 L210.314453,16.9296875 L210.314453,11.84375 L211.966797,11.84375 C212.958984,11.84375 213.6875,12.046875 214.152344,12.453125 C214.617188,12.859375 214.849609,13.4882812 214.849609,14.3398438 C214.849609,15.1835938 214.572266,15.8261719 214.017578,16.2675781 C213.462891,16.7089844 212.626953,16.9296875 211.509766,16.9296875 L211.509766,16.9296875 Z M229.146484,26.234375 C231.771484,26.234375 233.787109,25.4726562 235.193359,23.9492188 C236.599609,22.4257812 237.302734,20.2460938 237.302734,17.4101562 C237.302734,14.5664062 236.605469,12.3867188 235.210938,10.8710938 C233.816406,9.35546875 231.802734,8.59765625 229.169922,8.59765625 C226.537109,8.59765625 224.515625,9.34960938 223.105469,10.8535156 C221.695312,12.3574219 220.990234,14.5351562 220.990234,17.3867188 C220.990234,20.2382812 221.693359,22.4257812 223.099609,23.9492188 C224.505859,25.4726562 226.521484,26.234375 229.146484,26.234375 Z M229.146484,23.1875 C227.701172,23.1875 226.615234,22.703125 225.888672,21.734375 C225.162109,20.765625 224.798828,19.3242188 224.798828,17.4101562 C224.798828,15.4960938 225.166016,14.0527344 225.900391,13.0800781 C226.634766,12.1074219 227.724609,11.6210938 229.169922,11.6210938 C232.052734,11.6210938 233.494141,13.5507812 233.494141,17.4101562 C233.494141,21.2617188 232.044922,23.1875 229.146484,23.1875 Z M244.650391,26.234375 C246.634766,26.234375 248.183594,25.7890625 249.296875,24.8984375 C250.410156,24.0078125 250.966797,22.7890625 250.966797,21.2421875 C250.966797,20.125 250.669922,19.1816406 250.076172,18.4121094 C249.482422,17.6425781 248.384766,16.875 246.783203,16.109375 C245.572266,15.53125 244.804688,15.1308594 244.480469,14.9082031 C244.15625,14.6855469 243.919922,14.4550781 243.771484,14.2167969 C243.623047,13.9785156 243.548828,13.6992188 243.548828,13.3789062 C243.548828,12.8632812 243.732422,12.4453125 244.099609,12.125 C244.466797,11.8046875 244.994141,11.6445312 245.681641,11.6445312 C246.259766,11.6445312 246.847656,11.71875 247.445312,11.8671875 C248.042969,12.015625 248.798828,12.2773438 249.712891,12.6523438 L249.712891,12.6523438 L250.884766,9.828125 C250.001953,9.4453125 249.15625,9.1484375 248.347656,8.9375 C247.539062,8.7265625 246.689453,8.62109375 245.798828,8.62109375 C243.986328,8.62109375 242.566406,9.0546875 241.539062,9.921875 C240.511719,10.7890625 239.998047,11.9804688 239.998047,13.4960938 C239.998047,14.3007812 240.154297,15.0039062 240.466797,15.6054688 C240.779297,16.2070312 241.197266,16.734375 241.720703,17.1875 C242.244141,17.640625 243.029297,18.1132812 244.076172,18.6054688 C245.193359,19.1367188 245.933594,19.5234375 246.296875,19.765625 C246.660156,20.0078125 246.935547,20.2597656 247.123047,20.5214844 C247.310547,20.7832031 247.404297,21.0820312 247.404297,21.4179688 C247.404297,22.0195312 247.191406,22.4726562 246.765625,22.7773438 C246.339844,23.0820312 245.728516,23.234375 244.931641,23.234375 C244.267578,23.234375 243.535156,23.1289062 242.734375,22.9179688 C241.933594,22.7070312 240.955078,22.34375 239.798828,21.828125 L239.798828,21.828125 L239.798828,25.203125 C241.205078,25.890625 242.822266,26.234375 244.650391,26.234375 Z M257.705078,26 L257.705078,8.8671875 L254.072266,8.8671875 L254.072266,26 L257.705078,26 Z M268.626953,26 L268.626953,11.890625 L273.279297,11.890625 L273.279297,8.8671875 L260.341797,8.8671875 L260.341797,11.890625 L264.994141,11.890625 L264.994141,26 L268.626953,26 Z M279.548828,26 L279.548828,8.8671875 L275.916016,8.8671875 L275.916016,26 L279.548828,26 Z M291.255859,26.234375 C293.880859,26.234375 295.896484,25.4726562 297.302734,23.9492188 C298.708984,22.4257812 299.412109,20.2460938 299.412109,17.4101562 C299.412109,14.5664062 298.714844,12.3867188 297.320312,10.8710938 C295.925781,9.35546875 293.912109,8.59765625 291.279297,8.59765625 C288.646484,8.59765625 286.625,9.34960938 285.214844,10.8535156 C283.804688,12.3574219 283.099609,14.5351562 283.099609,17.3867188 C283.099609,20.2382812 283.802734,22.4257812 285.208984,23.9492188 C286.615234,25.4726562 288.630859,26.234375 291.255859,26.234375 Z M291.255859,23.1875 C289.810547,23.1875 288.724609,22.703125 287.998047,21.734375 C287.271484,20.765625 286.908203,19.3242188 286.908203,17.4101562 C286.908203,15.4960938 287.275391,14.0527344 288.009766,13.0800781 C288.744141,12.1074219 289.833984,11.6210938 291.279297,11.6210938 C294.162109,11.6210938 295.603516,13.5507812 295.603516,17.4101562 C295.603516,21.2617188 294.154297,23.1875 291.255859,23.1875 Z M306.208984,26 L306.208214,17.7583532 C306.199996,16.7665712 306.126034,15.1934743 305.986328,13.0390625 L305.986328,13.0390625 L306.091797,13.0390625 L313.544922,26 L318.162109,26 L318.162109,8.8671875 L314.892578,8.8671875 L314.892578,16.9765625 C314.892578,17.8984375 314.951172,19.4726562 315.068359,21.6992188 L315.068359,21.6992188 L314.986328,21.6992188 L307.544922,8.8671875 L302.962891,8.8671875 L302.962891,26 L306.208984,26 Z" id="ESRAVALUEPROPOSITION" fill="#4298B6" fill-rule="nonzero"></path>
                    </g>
                </g>
            </g>
        </g>
    </g>
</svg>