<?xml version="1.0" encoding="UTF-8"?>
<svg width="56px" height="56px" viewBox="0 0 56 56" version="1.1" xmlns="http://www.w3.org/2000/svg" xmlns:xlink="http://www.w3.org/1999/xlink">
    <title>winner</title>
    <g id="ESRA" stroke="none" stroke-width="1" fill="none" fill-rule="evenodd">
        <g id="our_services" transform="translate(-758.000000, -645.000000)" fill="#4298B6" fill-rule="nonzero">
            <g id="Group-7" transform="translate(179.000000, 140.000000)">
                <g id="Group-3" transform="translate(576.000000, 0.000000)">
                    <g id="Group-2">
                        <g id="Group-9" transform="translate(3.000000, 505.000000)">
                            <g id="winner">
                                <path d="M33.55551,7.03060754 C32.977375,6.88952676 32.3976275,7.24958234 32.2585225,7.83438668 C32.1194175,8.41929997 32.47449,9.00780836 33.0516575,9.1487802 C41.7647475,11.2774114 47.85,19.1162735 47.85,28.2114626 C47.85,39.0242422 39.1696975,47.8211463 28.5,47.8211463 C17.8303025,47.8211463 9.15,39.0242422 9.15,28.2114626 C9.15,19.1166003 15.23493,11.2777382 23.94759,9.14888914 C24.5247575,9.00780836 24.87983,8.41929997 24.740725,7.83449562 C24.6015125,7.24958234 24.0205825,6.88996253 23.4437375,7.03071648 C18.8341375,8.15707492 14.65787,10.8574373 11.6843125,14.6343713 C8.61981,18.5267846 7,23.2216697 7,28.2114626 C7,40.2256621 16.6449,50 28.5,50 C40.3551,50 50,40.2257711 50,28.2114626 C50,23.2215607 48.38019,18.5265667 45.3154725,14.6340445 C42.3418075,10.8572194 38.165325,8.15685703 33.55551,7.03060754 Z" id="Path"></path>
                                <path d="M55.3408553,25.3691639 L54.0612847,22.9818497 L54.2746741,20.030492 C54.4798604,18.1387531 53.7252867,16.2925139 52.2535453,15.088521 L50.1294953,13.3492499 L49.2939845,10.8323272 C48.826081,8.90788534 47.3645115,7.36111315 45.4681788,6.78831964 L42.8463661,5.99623053 L40.8384716,3.67530663 C39.6504473,2.27783044 37.8522235,1.55092845 36.0279685,1.73019303 L33.3067345,2.00133206 L30.6317658,0.659418052 C28.9832755,-0.219404923 27.0178182,-0.220170544 25.3691091,0.659308677 L22.9819044,1.93876993 L20.0306561,1.72527118 C18.1381515,1.52008488 16.2925686,2.27476796 15.088685,3.74639996 L13.3493046,5.87045001 L10.8324912,6.70596074 C8.90794001,7.17386425 7.36116783,8.63543381 6.78837431,10.5316571 L5.99639458,13.1534698 L3.67547068,15.1614737 C2.27810387,16.349498 1.55076439,18.1473937 1.73024771,19.9719768 L2.00138675,22.6932108 L0.659472738,25.3681795 C-0.21945961,27.0167792 -0.220115856,28.9821271 0.659253989,30.6309455 L1.93882461,33.0181503 L1.72532586,35.969508 C1.52024894,37.8612469 2.27482264,39.7073767 3.74645464,40.911479 L5.87050469,42.6507501 L6.70601542,45.1676729 C7.17380955,47.0921147 8.63537911,48.6388869 10.5318211,49.2116804 L13.1535245,50.0036601 L15.1615284,52.3246934 C16.349662,53.7220602 18.1471202,54.4493997 19.9720314,54.269807 L22.6931561,53.998668 L25.367906,55.3403632 C26.1924793,55.7800482 27.096349,56 28.0002187,56 C28.9034322,56 29.8066456,55.7803763 30.6307814,55.3408007 L33.0180956,54.0613395 L35.9693439,54.2748382 C37.8609734,54.479587 39.7072126,53.7253415 40.9114243,52.2537095 L42.6506953,50.1296594 L45.1677275,49.294258 C47.0920599,48.8263545 48.6387227,47.364785 49.2115163,45.4684523 L50.0036054,42.846749 L52.3246386,40.8387451 C53.7220054,39.6507208 54.4493449,37.8528251 54.2698616,36.0281327 L53.9986132,33.3071174 L55.3404178,30.6321487 C56.2193502,28.9834396 56.2202252,27.0179823 55.3408553,25.3691639 L55.3408553,25.3691639 Z M53.4054761,29.6113578 C53.4006636,29.6203265 53.3959605,29.6292952 53.3914761,29.6382639 L51.9011411,32.6094183 C51.8082823,32.7944797 51.7698919,33.0021816 51.7903449,33.2083523 L52.0929837,36.2434908 C52.2021394,37.3533124 51.7590638,38.4481497 50.9005845,39.1781142 L48.3326933,41.3997262 C48.1760692,41.535241 48.0612261,41.7123181 48.0013984,41.9105044 L47.1175442,44.8357217 C46.7652494,46.0020898 45.8081143,46.8988502 44.6197619,47.1758955 C44.5872777,47.1834423 44.5551217,47.1925204 44.5235125,47.2030203 L41.660748,48.1531554 C41.4642023,48.2184519 41.2901877,48.3381074 41.1590478,48.4983408 L39.2187467,50.8680457 C38.4817823,51.7688529 37.3496483,52.2288815 36.1911551,52.0985072 C36.1767177,52.0968666 36.1621709,52.0955541 36.1478428,52.0944604 L32.8598309,51.8566805 C32.6527852,51.8418056 32.4467239,51.8857741 32.2642875,51.9835548 L29.5994906,53.4117652 C28.594559,53.9476995 27.3942848,53.945512 26.3885875,53.4055308 C26.3796188,53.4008277 26.3706502,53.3961246 26.3616815,53.3916403 L23.3906364,51.9013053 C23.2379498,51.8247432 23.0699507,51.7851497 22.9002017,51.7851497 C22.8641082,51.7851497 22.8279053,51.7868997 22.7917024,51.790509 L19.7565639,52.0929291 C18.6468517,52.2025223 17.551905,51.7590092 16.8219405,50.9006393 L14.6003285,48.3327481 C14.4649231,48.176124 14.2877366,48.0611715 14.0894409,48.0013437 L11.1642237,47.1177083 C9.99774612,46.7654135 9.10109513,45.8082785 8.82404988,44.6198167 C8.81650305,44.5873325 8.80742498,44.5552858 8.79692504,44.5235673 L7.84678998,41.6606934 C7.78160286,41.4641477 7.66194732,41.2902425 7.50171388,41.1591026 L5.1321184,39.2186921 C4.23131118,38.4817277 3.77128262,37.3499218 3.90165686,36.1912098 C3.90329747,36.1767724 3.90460997,36.162335 3.90570371,36.1477882 L4.14348357,32.8596669 C4.15846785,32.6531681 4.11438999,32.4466693 4.01660931,32.2641235 L2.58828956,29.5995453 C2.0523552,28.5946137 2.05465206,27.3943395 2.59441452,26.3886423 C2.59922699,26.379783 2.60382072,26.3708143 2.60830506,26.3618456 L4.09864008,23.3906911 C4.19149891,23.2056297 4.22988931,22.9979278 4.20932693,22.7918665 L3.90690683,19.7565093 C3.79775122,18.6466876 4.24082674,17.5518503 5.09930609,16.8218858 L7.66719729,14.6002739 C7.82382137,14.464759 7.93866444,14.2876819 7.99860159,14.0894956 L8.88234641,11.164169 C9.23464122,9.99780083 10.1917762,9.10114983 11.380238,8.82399521 C11.4127222,8.81644838 11.4447689,8.8073703 11.4764875,8.79687037 L14.3391426,7.84662593 C14.5356883,7.78143882 14.7095935,7.66178327 14.8407334,7.50154983 L16.7812532,5.13184497 C17.5182177,4.23114712 18.6503517,3.77133732 19.8087355,3.9014928 C19.8231729,3.90313342 19.8376103,3.90444591 19.8520477,3.90553965 L23.1400597,4.14331951 C23.3460116,4.15797567 23.5530573,4.11422593 23.7356031,4.01644525 L26.4002906,2.58823487 C27.4051128,2.05230051 28.6054964,2.054488 29.6110843,2.59435984 C29.6199436,2.59906294 29.6289123,2.60376603 29.6379904,2.60825038 L32.6091448,4.0985854 C32.7942062,4.19144423 33.0019082,4.229944 33.2079694,4.20927225 L36.2432173,3.90685215 C37.3529295,3.79747779 38.4478762,4.24077206 39.1778407,5.09925141 L41.3994527,7.66714261 C41.5348581,7.82376669 41.7120446,7.93860977 41.9103403,7.99854692 L44.8355575,8.88229174 C46.0019257,9.23458655 46.8985767,10.1918309 47.1757313,11.3801834 C47.1832782,11.4126675 47.1923562,11.4447142 47.2028562,11.4764328 L48.1531006,14.3390879 C48.2183971,14.5356336 48.3379433,14.7095388 48.4981767,14.8406787 L50.8678816,16.7810892 C51.7686888,17.5180536 52.228608,18.6497501 52.0982337,19.8085715 C52.0965931,19.8230089 52.0952806,19.8374463 52.0942962,19.8519931 L51.8565164,23.1401144 C51.8415321,23.3466132 51.88561,23.553112 51.9832813,23.7356578 L53.411601,26.4003453 C53.9476448,27.4054957 53.9453479,28.6057699 53.4054761,29.6113578 L53.4054761,29.6113578 Z" id="Shape"></path>
                                <path d="M23.7741081,21.7522452 C23.6005953,21.3935576 23.229014,21.144917 22.7973956,21.144917 L17.0817505,21.144917 C16.4842997,21.144917 16,21.6200189 16,22.206123 L16,38.2691731 C16,38.8552771 16.4842997,39.330379 17.0817505,39.330379 L22.7973956,39.330379 C23.2457812,39.330379 23.6303435,39.062849 23.7943368,38.6815577 C24.6189553,38.7951068 25.4684539,39.0251762 26.3528931,39.2654332 C27.6825808,39.6265616 29.0573775,40 30.4858291,40 L36.7306665,40 C38.6611584,40 40.2254778,38.995993 40.9153101,37.3140877 C41.2513018,36.4946245 41.3101491,35.644174 41.1138113,34.9322109 C41.4729525,34.615441 41.7764917,34.2210968 42.0060392,33.7606396 C42.4713,32.8276273 42.5642224,31.7784129 42.3004916,30.8947467 C42.7920391,30.4288773 43.1587525,29.8136962 43.3504387,29.088362 C43.5296847,28.4102514 43.5265476,27.741161 43.3670976,27.1614242 C44.3428366,26.5983483 45,25.5753458 45,24.4226638 C45,23.5186225 44.6411834,22.6855758 43.9895369,22.0770803 C43.3638524,21.4927803 42.5304718,21.1709165 41.6430037,21.1709165 L32.8406917,21.1711288 C32.1719536,20.3481636 31.9638248,19.2313504 32.3446009,18.3324028 C33.1260575,16.4873902 33.0775951,14.9256133 32.1878553,13.2686464 C31.5273384,12.0388148 29.7513205,10.8143953 28.258613,11.0234529 C27.3563249,11.1499487 26.7034885,11.7755296 26.5120186,12.6970808 C26.4556594,12.968219 26.4401904,13.2611118 26.4223415,13.6002732 C26.3782061,14.436928 26.3176281,15.5828182 25.5813887,16.9665247 C25.0823772,17.9045246 24.9158958,18.8692669 24.768994,19.7204602 C24.5585936,20.9397859 24.4565845,21.5271634 23.7741081,21.7522452 L23.7741081,21.7522452 Z M18.163501,23.2673289 L21.7156451,23.2673289 L21.7156451,37.2079671 L18.163501,37.2079671 L18.163501,23.2673289 Z M26.902206,20.0746908 C27.02823,19.344475 27.1584727,18.5893208 27.4994405,17.9486708 C28.4538689,16.1548082 28.5346757,14.6244431 28.5830299,13.710108 C28.5959028,13.4665613 28.6080184,13.2364918 28.6320332,13.1208204 C28.6321414,13.1200775 28.6323578,13.1192286 28.6325741,13.1184857 C29.0078334,13.1235795 29.9313238,13.6205423 30.2736978,14.2581148 C30.8662807,15.3613445 30.8859686,16.2450107 30.3468241,17.5182456 C29.8605773,18.6662582 29.8971404,19.9983901 30.3780867,21.182802 C29.8518151,21.2546457 29.446375,21.696638 29.446375,22.2326531 C29.446375,22.818651 29.9307829,23.2938591 30.5281255,23.2938591 L41.6430037,23.2935407 C41.9726131,23.2935407 42.2762604,23.4075142 42.4978029,23.6144494 C42.6523851,23.7586673 42.836499,24.0161158 42.836499,24.42277 C42.836499,24.9920008 42.3046023,25.4841882 41.6749153,25.4976655 L38.8905977,25.557093 C38.2933633,25.5698275 37.8196647,26.055117 37.8326457,26.6411149 C37.8455186,27.2192599 38.3271139,27.6792927 38.9137472,27.6792927 C38.921644,27.6792927 38.9296489,27.6792927 38.937762,27.6790804 L41.2566024,27.6296283 C41.3322168,27.8398532 41.3715925,28.2408829 41.2123588,28.7002789 C41.0768155,29.091015 40.7130228,29.7464158 39.7978619,29.7464158 C39.2005192,29.7464158 38.7161114,30.2215177 38.7161114,30.8076217 C38.7161114,31.3937258 39.2005192,31.8688277 39.7978619,31.8688277 C39.9618552,31.8688277 40.1228197,31.8588524 40.2803226,31.8392201 C40.2937363,32.1395413 40.2307784,32.4913311 40.0627826,32.8281579 C39.8641732,33.2263224 39.4716059,33.7011059 38.7293087,33.7011059 C38.1319661,33.7011059 37.6475582,34.1762078 37.6475582,34.7623119 C37.6475582,35.3484159 38.1319661,35.8235178 38.7293087,35.8235178 C38.8412699,35.8235178 38.9520412,35.8186363 39.0614061,35.8089793 C39.0585936,36.0126247 39.0164053,36.267208 38.8983863,36.5456685 C38.7287678,36.9461676 38.1778323,37.8775881 36.7308829,37.8775881 L30.4860454,37.8775881 C29.3516137,37.8775881 28.1755345,37.5581651 26.9304397,37.2199587 C25.9396644,36.9508369 24.9237925,36.6751356 23.8793624,36.5520357 L23.8793624,23.9000199 C26.3148155,23.4670479 26.6505909,21.5328939 26.902206,20.0746908 L26.902206,20.0746908 Z" id="Shape"></path>
                                <path d="M28.00015,8 C28.5523671,8 29,7.5523 29,7 C29,6.4477 28.5523671,6 28.00015,6 L27.9994501,6 C27.4472329,6 27,6.4477 27,7 C27,7.5523 27.4479328,8 28.00015,8 Z" id="Path"></path>
                            </g>
                        </g>
                    </g>
                </g>
            </g>
        </g>
    </g>
</svg>